<svg xmlns="http://www.w3.org/2000/svg" viewBox="0 0 500 400"><defs><style>.cls-1{fill:#f9faeb;}</style></defs><g id="Menu"><circle cx="400" cy="174.26" r="7.03"/><path class="cls-1" d="M141.64,207.38l6.7,10.81h-11l-5.87-9.72H116.39v9.72H107V181.81h28.58c8.26,0,13.93,5.25,13.93,13.36C149.54,201.09,146.52,205.46,141.64,207.38Zm-25.25-6.76H133c2.81,0,7.17,0,7.17-5.45s-4.36-5.51-7.17-5.51H116.39Z"/><path class="cls-1" d="M165.07,189.24v7.38h29.09v6.76H165.07v7.38h29.09v7.43H155.71V181.81h38.45v7.43Z"/><path class="cls-1" d="M235.72,203.4c-1.17,5.33-5.66,7.46-13,7.46-9.46,0-13.51-3.43-13.51-10.91s4-10.81,13.51-10.81c6.55,0,10.78,1.63,12.49,5.63H245c-1.84-8.84-9-13.48-22.32-13.48-16,0-22.86,6.6-22.86,18.66s6.86,18.76,22.86,18.76c14.12,0,21.37-5.29,22.6-15.31Z"/><path class="cls-1" d="M288.92,210.51v7.68H252.29V182.58h9.16v27.93Z"/><path class="cls-1" d="M329.65,210.61H308.34l-3.82,7.58H294.45l18.36-35.61h12.36l18.42,35.61H333.46Zm-3.41-6.82L319,189.35l-7.27,14.44Z"/><path class="cls-1" d="M393,207.81c0,6-3.51,10.38-11.6,10.38H348.82V182.58h31.33c8.09,0,10.58,4.12,10.58,9.36a10.45,10.45,0,0,1-2.8,6.92A10.06,10.06,0,0,1,393,207.81Zm-35-11.24h18.92c2.45,0,4.68,0,4.68-3.71s-2.23-3.67-4.73-3.67H358Zm25.84,10.78c0-3.76-2.24-3.76-4.68-3.76H358v7.53h21.16C381.57,211.12,383.81,211.12,383.81,207.35Z"/></g></svg>