<svg xmlns="http://www.w3.org/2000/svg" viewBox="0 0 137.95 137.95"><defs><style>.cls-1{fill:#e31022;}.cls-2{fill:#1f1f1e;}</style></defs><g id="Camada_2" data-name="Camada 2"><g id="Layout"><circle class="cls-1" cx="104.69" cy="68.97" r="4.37"/><circle class="cls-1" cx="99.81" cy="87" r="4.37"/><circle class="cls-1" cx="87" cy="99.81" r="4.37"/><circle class="cls-1" cx="68.97" cy="104.69" r="4.37"/><circle class="cls-1" cx="50.95" cy="99.81" r="4.37"/><circle class="cls-1" cx="38.13" cy="87" r="4.37"/><circle class="cls-1" cx="33.26" cy="68.97" r="4.37"/><circle class="cls-1" cx="38.13" cy="50.95" r="4.37"/><circle class="cls-1" cx="50.95" cy="38.13" r="4.37"/><circle class="cls-1" cx="68.97" cy="33.26" r="4.37"/><circle class="cls-1" cx="87" cy="38.13" r="4.37"/><circle class="cls-1" cx="99.81" cy="50.95" r="4.37"/><circle class="cls-1" cx="104.69" cy="68.97" r="4.37"/><circle class="cls-2" cx="133.57" cy="68.97" r="4.37"/><circle class="cls-2" cx="128.5" cy="94.12" r="4.37"/><circle class="cls-2" cx="114.65" cy="114.65" r="4.37"/><circle class="cls-2" cx="94.12" cy="128.5" r="4.37"/><circle class="cls-2" cx="68.97" cy="133.57" r="4.37"/><circle class="cls-2" cx="43.83" cy="128.5" r="4.37"/><circle class="cls-2" cx="23.29" cy="114.65" r="4.37"/><circle class="cls-2" cx="9.45" cy="94.12" r="4.37"/><circle class="cls-2" cx="4.37" cy="68.97" r="4.37"/><circle class="cls-2" cx="9.45" cy="43.83" r="4.37"/><circle class="cls-2" cx="23.29" cy="23.29" r="4.37"/><circle class="cls-2" cx="43.83" cy="9.45" r="4.37"/><circle class="cls-2" cx="68.97" cy="4.37" r="4.37"/><circle class="cls-2" cx="94.12" cy="9.45" r="4.37"/><circle class="cls-2" cx="114.65" cy="23.29" r="4.37"/><circle class="cls-2" cx="128.5" cy="43.83" r="4.37"/><circle class="cls-2" cx="133.57" cy="68.97" r="4.37"/><circle class="cls-1" cx="68.97" cy="68.97" r="4.37"/></g></g></svg>