<?xml version="1.0" encoding="utf-8"?>
<!-- Generator: Adobe Illustrator 25.0.1, SVG Export Plug-In . SVG Version: 6.00 Build 0)  -->
<svg version="1.1" id="Layout" xmlns="http://www.w3.org/2000/svg" xmlns:xlink="http://www.w3.org/1999/xlink" x="0px" y="0px"
	 viewBox="0 0 1366 1380" style="enable-background:new 0 0 1366 1380;" xml:space="preserve">
<style type="text/css">
	.st0{clip-path:url(#SVGID_2_);}
	.st1{opacity:0.1;}
	.st2{fill:#1F1F1E;}
</style>
<g>
	<g>
		<defs>
			<rect id="SVGID_1_" y="-1054" width="1366" height="768"/>
		</defs>
		<clipPath id="SVGID_2_">
			<use xlink:href="#SVGID_1_"  style="overflow:visible;"/>
		</clipPath>
		<g class="st0">
		</g>
	</g>
</g>
<g class="st1">
	<circle class="st2" cx="777.7" cy="719.7" r="4.6"/>
	<circle class="st2" cx="761.1" cy="744.3" r="4.6"/>
	<circle class="st2" cx="736.4" cy="760.9" r="4.6"/>
	<path class="st2" d="M706.3,762.4c-2.5,0-4.6,2-4.6,4.6c0,2.5,2,4.6,4.6,4.6c2.5,0,4.6-2,4.6-4.6l0,0
		C710.9,764.5,708.8,762.4,706.3,762.4z"/>
	<circle class="st2" cx="676.1" cy="761" r="4.6"/>
	<path class="st2" d="M654.7,741.1c-1.8-1.8-4.7-1.8-6.5,0s-1.8,4.7,0,6.5s4.7,1.8,6.5,0S656.5,742.9,654.7,741.1L654.7,741.1z"/>
	<path class="st2" d="M633.1,715.5c-2.3,1-3.4,3.7-2.4,6s3.7,3.4,6,2.4s3.4-3.7,2.4-6l0,0C638.1,715.6,635.4,714.5,633.1,715.5z"/>
	<circle class="st2" cx="628.8" cy="689.5" r="4.6"/>
	<path class="st2" d="M636.7,655.2c-2.3-1-5,0.1-6,2.4c-1,2.3,0.1,5,2.4,6c2.3,1,5-0.1,6-2.4C640.1,658.8,639,656.2,636.7,655.2
		L636.7,655.2z"/>
	<path class="st2" d="M648.3,631.5c-1.8,1.8-1.8,4.7,0,6.5s4.7,1.8,6.5,0s1.8-4.7,0-6.5C652.9,629.7,650.1,629.7,648.3,631.5
		L648.3,631.5z"/>
	<path class="st2" d="M674.3,613.9c-2.3,1-3.4,3.7-2.4,6s3.7,3.4,6,2.4s3.4-3.7,2.4-6l0,0C679.3,614,676.7,612.9,674.3,613.9z"/>
	<path class="st2" d="M706.3,607.5c-2.5,0-4.6,2-4.6,4.6s2,4.6,4.6,4.6s4.6-2,4.6-4.6l0,0C710.9,609.5,708.8,607.5,706.3,607.5z"/>
	<path class="st2" d="M738.2,613.9c-2.3-1-5,0.1-6,2.4c-1,2.3,0.1,5,2.4,6c2.3,1,5-0.1,6-2.4l0,0
		C741.6,617.6,740.6,614.9,738.2,613.9L738.2,613.9z"/>
	<circle class="st2" cx="761.1" cy="634.7" r="4.6"/>
	<circle class="st2" cx="777.7" cy="659.3" r="4.6"/>
	<path class="st2" d="M783.8,685c-2.5,0-4.6,2.1-4.6,4.6s2.1,4.6,4.6,4.6s4.6-2.1,4.6-4.6l0,0C788.4,687,786.3,685,783.8,685
		L783.8,685z"/>
	<path class="st2" d="M816.8,720.3c0.7-2.4-0.8-4.9-3.2-5.6c-2.4-0.7-4.9,0.8-5.6,3.2c-0.7,2.4,0.8,4.9,3.2,5.6
		C813.7,724.1,816.2,722.7,816.8,720.3L816.8,720.3z"/>
	<path class="st2" d="M805.2,747.9c1.3-2.2,0.5-5-1.6-6.3c-2.2-1.3-5-0.5-6.3,1.6c-1.3,2.2-0.5,5,1.6,6.3l0,0
		C801.1,750.8,803.9,750.1,805.2,747.9L805.2,747.9z"/>
	<path class="st2" d="M787.1,771.3c1.8-1.8,1.8-4.7,0-6.5s-4.7-1.8-6.5,0s-1.8,4.7,0,6.5C782.4,773.1,785.3,773.1,787.1,771.3
		L787.1,771.3z"/>
	<path class="st2" d="M759.1,781.5c-2.2,1.3-2.9,4.1-1.6,6.3s4.1,2.9,6.3,1.6c2.2-1.3,2.9-4.1,1.6-6.3l0,0
		C764,781,761.2,780.2,759.1,781.5z"/>
	<path class="st2" d="M739.2,795.5c-0.7-2.4-3.2-3.9-5.6-3.2c-2.4,0.7-3.9,3.2-3.2,5.6c0.7,2.4,3.2,3.9,5.6,3.2
		C738.5,800.4,739.9,797.9,739.2,795.5L739.2,795.5z"/>
	<path class="st2" d="M705.3,796.1c-2.5,0-4.6,2.1-4.6,4.6s2.1,4.6,4.6,4.6s4.6-2.1,4.6-4.6S707.8,796.1,705.3,796.1L705.3,796.1z"
		/>
	<path class="st2" d="M677,792.3c-2.4-0.7-4.9,0.8-5.6,3.2c-0.7,2.4,0.8,4.9,3.2,5.6c2.4,0.7,4.9-0.8,5.6-3.2
		C680.9,795.4,679.4,792.9,677,792.3L677,792.3z"/>
	<path class="st2" d="M645.3,783.2c-1.3,2.2-0.5,5,1.6,6.2c2.2,1.3,5,0.5,6.2-1.6c1.3-2.2,0.5-5-1.6-6.2
		C649.4,780.2,646.6,781,645.3,783.2L645.3,783.2z"/>
	<circle class="st2" cx="626.7" cy="768.1" r="4.6"/>
	<path class="st2" d="M613.3,743.3c-1.3-2.2-4.1-2.9-6.3-1.6s-2.9,4.1-1.6,6.3c1.3,2.2,4.1,2.9,6.3,1.6l0,0
		C613.8,748.3,614.6,745.5,613.3,743.3z"/>
	<path class="st2" d="M599.4,723.5c2.4-0.7,3.9-3.2,3.2-5.6s-3.2-3.9-5.6-3.2c-2.4,0.7-3.9,3.2-3.2,5.6
		C594.4,722.7,596.9,724.2,599.4,723.5z"/>
	<path class="st2" d="M598.8,689.5c0-2.5-2.1-4.6-4.6-4.6s-4.6,2.1-4.6,4.6s2.1,4.6,4.6,4.6l0,0
		C596.7,694.1,598.8,692.1,598.8,689.5L598.8,689.5z"/>
	<path class="st2" d="M599.4,655.6c-2.4-0.7-5,0.8-5.6,3.2c-0.7,2.4,0.8,5,3.2,5.6c2.4,0.7,5-0.8,5.6-3.2l0,0
		C603.2,658.8,601.8,656.3,599.4,655.6z"/>
	<path class="st2" d="M611.7,629.5c-2.2-1.3-5-0.5-6.2,1.6c-1.3,2.2-0.5,5,1.6,6.2c2.2,1.3,5,0.5,6.2-1.6
		C614.6,633.6,613.9,630.8,611.7,629.5L611.7,629.5z"/>
	<circle class="st2" cx="626.7" cy="611" r="4.6"/>
	<circle class="st2" cx="649.2" cy="593.5" r="4.6"/>
	<path class="st2" d="M674.5,578c-2.4,0.7-3.9,3.2-3.2,5.6c0.7,2.4,3.2,3.9,5.6,3.2c2.4-0.7,3.9-3.2,3.2-5.6l0,0
		C679.5,578.8,677,577.3,674.5,578z"/>
	<path class="st2" d="M705.3,573.8c-2.5,0-4.6,2.1-4.6,4.6s2.1,4.6,4.6,4.6s4.6-2.1,4.6-4.6S707.8,573.8,705.3,573.8L705.3,573.8z"
		/>
	<path class="st2" d="M739.2,583.6c0.7-2.4-0.8-4.9-3.2-5.6c-2.4-0.7-4.9,0.8-5.6,3.2c-0.7,2.4,0.8,4.9,3.2,5.6
		C736.1,587.5,738.6,586,739.2,583.6z"/>
	<path class="st2" d="M763.7,589.7c-2.2-1.3-5-0.5-6.2,1.6c-1.3,2.2-0.5,5,1.6,6.2c2.2,1.3,5,0.5,6.2-1.6
		C766.6,593.7,765.9,590.9,763.7,589.7L763.7,589.7z"/>
	<path class="st2" d="M787.1,614.2c1.8-1.8,1.8-4.7,0-6.5s-4.7-1.8-6.5,0s-1.8,4.7,0,6.5C782.4,616,785.3,616,787.1,614.2
		L787.1,614.2z"/>
	<path class="st2" d="M798.9,629.5c-2.2,1.3-2.9,4.1-1.6,6.3s4.1,2.9,6.3,1.6c2.2-1.3,2.9-4.1,1.6-6.2
		C803.9,629,801.1,628.2,798.9,629.5z"/>
	<path class="st2" d="M808,661.2c0.7,2.4,3.2,3.9,5.6,3.2s3.9-3.2,3.2-5.6c-0.7-2.4-3.2-3.9-5.6-3.2
		C808.8,656.3,807.3,658.8,808,661.2z"/>
	<path class="st2" d="M821,689.5c0-2.5-2.1-4.6-4.6-4.6s-4.6,2.1-4.6,4.6s2.1,4.6,4.6,4.6S821,692.1,821,689.5L821,689.5z"/>
	<path class="st2" d="M850.9,719.6c0.5-2.5-1.1-4.9-3.6-5.4s-4.9,1.1-5.4,3.6s1.1,4.9,3.6,5.4C847.9,723.7,850.4,722.1,850.9,719.6
		L850.9,719.6z"/>
	<circle class="st2" cx="837.9" cy="745.9" r="4.6"/>
	<path class="st2" d="M822,774.2c2.1,1.4,4.9,0.9,6.4-1.2c1.4-2.1,0.9-4.9-1.2-6.4c-2.1-1.4-4.9-0.9-6.4,1.2l0,0
		C819.4,770,820,772.8,822,774.2L822,774.2z"/>
	<circle class="st2" cx="806.9" cy="791.9" r="4.6"/>
	<path class="st2" d="M783,805.8c-2.1,1.4-2.7,4.3-1.2,6.4c1.4,2.1,4.3,2.7,6.4,1.2c2.1-1.4,2.7-4.3,1.2-6.4l0,0
		C787.9,804.9,785.1,804.3,783,805.8z"/>
	<path class="st2" d="M759.2,818.7c-2.3,1-3.4,3.7-2.4,6s3.7,3.4,6,2.4s3.4-3.7,2.4-6C764.2,818.8,761.5,817.7,759.2,818.7z"/>
	<path class="st2" d="M738.2,830.4c-0.5-2.5-2.9-4.1-5.4-3.6s-4.1,2.9-3.6,5.4s2.9,4.1,5.4,3.6C737.2,835.3,738.8,832.9,738.2,830.4
		C738.3,830.4,738.3,830.4,738.2,830.4z"/>
	<path class="st2" d="M704.6,829.7c-2.5,0-4.6,2.1-4.6,4.6s2.1,4.6,4.6,4.6s4.6-2.1,4.6-4.6l0,0
		C709.2,831.7,707.1,829.7,704.6,829.7z"/>
	<path class="st2" d="M676.3,826.8c-2.5-0.5-4.9,1.1-5.4,3.6s1.1,4.9,3.6,5.4s4.9-1.1,5.4-3.6C680.4,829.8,678.8,827.3,676.3,826.8z
		"/>
	<path class="st2" d="M646.5,827.1c2.3,1,5-0.1,6-2.4c1-2.3-0.1-5-2.4-6c-2.3-1-5,0.1-6,2.4l0,0
		C643.1,823.4,644.1,826.1,646.5,827.1L646.5,827.1z"/>
	<path class="st2" d="M627.5,812.1c1.4-2.1,0.9-4.9-1.2-6.4c-2.1-1.4-4.9-0.9-6.4,1.2c-1.4,2.1-0.9,4.9,1.2,6.4l0,0
		C623.2,814.8,626.1,814.2,627.5,812.1L627.5,812.1z"/>
	<circle class="st2" cx="602.3" cy="791.9" r="4.6"/>
	<path class="st2" d="M587.2,774.2c2.1-1.4,2.6-4.3,1.2-6.3c-1.4-2.1-4.3-2.6-6.3-1.2c-2.1,1.4-2.6,4.2-1.2,6.3
		C582.2,775.1,585,775.7,587.2,774.2C587.1,774.2,587.1,774.2,587.2,774.2z"/>
	<circle class="st2" cx="571.2" cy="745.8" r="4.6"/>
	<path class="st2" d="M563.7,723.2c2.5-0.5,4.1-2.9,3.6-5.4s-2.9-4.1-5.4-3.6s-4.1,2.9-3.6,5.4C558.8,722.1,561.2,723.7,563.7,723.2
		L563.7,723.2z"/>
	<circle class="st2" cx="559.9" cy="689.5" r="4.6"/>
	<path class="st2" d="M558.3,659.5c-0.5,2.5,1.1,4.9,3.6,5.4s4.9-1.1,5.4-3.6s-1.1-4.9-3.6-5.4C561.3,655.4,558.8,657,558.3,659.5z"
		/>
	<path class="st2" d="M573,629c-2.3-1-5,0.1-6,2.4c-1,2.3,0.1,5,2.4,6c2.3,1,5-0.1,6-2.4l0,0C576.4,632.7,575.3,630,573,629z"/>
	<path class="st2" d="M587.2,604.8c-2.1-1.4-4.9-0.9-6.3,1.2c-1.4,2.1-0.9,4.9,1.2,6.3c2.1,1.4,4.9,0.9,6.3-1.2
		C589.8,609.1,589.2,606.2,587.2,604.8z"/>
	<path class="st2" d="M605.5,590.4c1.8-1.8,1.8-4.7,0-6.5s-4.7-1.8-6.5,0s-1.8,4.7,0,6.5S603.7,592.2,605.5,590.4z"/>
	<path class="st2" d="M626.2,573.3c2.1-1.4,2.6-4.3,1.2-6.3c-1.4-2.1-4.3-2.6-6.3-1.2c-2.1,1.4-2.6,4.2-1.2,6.3
		C621.3,574.2,624.1,574.7,626.2,573.3L626.2,573.3z"/>
	<path class="st2" d="M646.5,552c-2.3,1-3.4,3.7-2.4,6s3.7,3.4,6,2.4s3.4-3.7,2.4-6l0,0C651.5,552.1,648.8,551,646.5,552z"/>
	<path class="st2" d="M671,548.7c0.5,2.5,2.9,4.1,5.4,3.6s4.1-2.9,3.6-5.4s-2.9-4.1-5.4-3.6l0,0C672.1,543.8,670.5,546.2,671,548.7z
		"/>
	<path class="st2" d="M704.6,540.2c-2.5,0-4.6,2.1-4.6,4.6s2.1,4.6,4.6,4.6s4.6-2.1,4.6-4.6l0,0
		C709.2,542.3,707.1,540.2,704.6,540.2L704.6,540.2z"/>
	<path class="st2" d="M734.7,543.3c-2.5-0.5-4.9,1.1-5.4,3.6s1.1,4.9,3.6,5.4s4.9-1.1,5.4-3.6S737.2,543.8,734.7,543.3L734.7,543.3z
		"/>
	<path class="st2" d="M756.7,554.4c-1,2.3,0.1,5,2.4,6c2.3,1,5-0.1,6-2.4c1-2.3-0.1-5-2.4-6l0,0C760.4,551,757.7,552.1,756.7,554.4z
		"/>
	<path class="st2" d="M788.1,565.7c-2.1-1.4-4.9-0.9-6.3,1.2c-1.4,2.1-0.9,4.9,1.2,6.3c2.1,1.4,4.9,0.9,6.3-1.2
		C790.7,570,790.2,567.2,788.1,565.7L788.1,565.7z"/>
	<path class="st2" d="M803.7,584c-1.8,1.8-1.8,4.7,0,6.5s4.7,1.8,6.5,0s1.8-4.7,0-6.5S805.5,582.2,803.7,584L803.7,584z"/>
	<path class="st2" d="M822,604.8c-2.1,1.4-2.6,4.3-1.2,6.4c1.4,2.1,4.3,2.6,6.4,1.2c2.1-1.4,2.6-4.3,1.2-6.4
		C827,604,824.1,603.4,822,604.8C822.1,604.8,822.1,604.8,822,604.8z"/>
	<path class="st2" d="M842.2,631.4c-1-2.3-3.7-3.4-6-2.4s-3.4,3.7-2.4,6s3.7,3.4,6,2.4l0,0C842.1,636.4,843.2,633.7,842.2,631.4z"/>
	<path class="st2" d="M845.5,655.9c-2.5,0.5-4.1,2.9-3.6,5.4s2.9,4.1,5.4,3.6s4.1-2.9,3.6-5.4l0,0
		C850.4,657,847.9,655.4,845.5,655.9z"/>
	<path class="st2" d="M844.8,689.5c0,2.5,2,4.6,4.6,4.6s4.6-2,4.6-4.6s-2-4.6-4.6-4.6l0,0C846.8,685,844.8,687,844.8,689.5z"/>
	<path class="st2" d="M878,730c2.5,0.5,4.9-1.1,5.4-3.6s-1.1-4.9-3.6-5.4s-4.9,1.1-5.4,3.6S875.5,729.5,878,730z"/>
	<circle class="st2" cx="868.5" cy="759.1" r="4.6"/>
	<path class="st2" d="M849.5,793.1c2.1,1.4,4.9,0.9,6.3-1.2c1.4-2.1,0.9-4.9-1.2-6.3c-2.1-1.4-4.9-0.9-6.3,1.2
		S847.4,791.7,849.5,793.1L849.5,793.1z"/>
	<circle class="st2" cx="830.3" cy="815.8" r="4.6"/>
	<path class="st2" d="M807.7,835c-1.4-2.1-4.3-2.7-6.4-1.2c-2.1,1.4-2.7,4.3-1.2,6.4c1.4,2.1,4.3,2.7,6.4,1.2l0,0
		C808.5,839.9,809.1,837.1,807.7,835L807.7,835z"/>
	<circle class="st2" cx="773.5" cy="854" r="4.6"/>
	<path class="st2" d="M744.5,863.5c-0.5-2.5-2.9-4.1-5.4-3.6s-4.1,2.9-3.6,5.4s2.9,4.1,5.4,3.6l0,0C743.4,868.4,745,866,744.5,863.5
		L744.5,863.5z"/>
	<circle class="st2" cx="704.1" cy="868" r="4.6"/>
	<path class="st2" d="M672.6,865.3c0.5-2.5-1.1-4.9-3.6-5.4s-4.9,1.1-5.4,3.6s1.1,4.9,3.6,5.4C669.6,869.4,672.1,867.8,672.6,865.3
		C672.6,865.4,672.6,865.3,672.6,865.3z"/>
	<circle class="st2" cx="634.6" cy="854.1" r="4.6"/>
	<path class="st2" d="M608,840.1c1.4-2.1,0.9-4.9-1.2-6.3c-2.1-1.4-4.9-0.9-6.3,1.2c-1.4,2.1-0.9,4.9,1.2,6.3
		C603.8,842.8,606.6,842.2,608,840.1L608,840.1z"/>
	<circle class="st2" cx="577.8" cy="815.8" r="4.6"/>
	<path class="st2" d="M552.2,791.9c1.4,2.1,4.3,2.6,6.3,1.2c2.1-1.4,2.6-4.3,1.2-6.3c-1.4-2.1-4.2-2.6-6.3-1.2
		C551.4,787,550.8,789.8,552.2,791.9L552.2,791.9z"/>
	<circle class="st2" cx="539.6" cy="759" r="4.6"/>
	<path class="st2" d="M533.7,724.6c-0.5-2.5-2.9-4.1-5.4-3.6s-4.1,2.9-3.6,5.4s2.9,4.1,5.4,3.6C532.6,729.5,534.2,727.1,533.7,724.6
		L533.7,724.6z"/>
	<circle class="st2" cx="525.6" cy="689.5" r="4.6"/>
	<path class="st2" d="M530.1,649.1c-2.5-0.5-4.9,1.1-5.4,3.6s1.1,4.9,3.6,5.4s4.9-1.1,5.4-3.6l0,0
		C534.2,652,532.6,649.6,530.1,649.1z"/>
	<path class="st2" d="M541.4,615.8c-2.3-1-5,0.1-6,2.4c-1,2.3,0.1,5,2.4,6c2.3,1,5-0.1,6-2.4l0,0
		C544.8,619.5,543.7,616.8,541.4,615.8z"/>
	<path class="st2" d="M558.6,585.9c-2.1-1.4-4.9-0.9-6.4,1.2c-1.4,2.1-0.9,4.9,1.2,6.4c2.1,1.4,4.9,0.9,6.4-1.2
		C561.2,590.2,560.7,587.3,558.6,585.9L558.6,585.9z"/>
	<circle class="st2" cx="577.8" cy="563.3" r="4.6"/>
	<path class="st2" d="M600.5,544.1c1.4,2.1,4.3,2.6,6.3,1.2c2.1-1.4,2.6-4.3,1.2-6.3c-1.4-2.1-4.2-2.6-6.3-1.2
		C599.6,539.1,599.1,542,600.5,544.1z"/>
	<path class="st2" d="M636.4,529.3c2.3-1,3.4-3.7,2.4-6s-3.7-3.4-6-2.4s-3.4,3.7-2.4,6l0,0C631.4,529.2,634,530.2,636.4,529.3z"/>
	<path class="st2" d="M663.6,515.6c0.5,2.5,2.9,4.1,5.4,3.6s4.1-2.9,3.6-5.4s-2.9-4.1-5.4-3.6C664.7,510.7,663.1,513.1,663.6,515.6
		L663.6,515.6z"/>
	<path class="st2" d="M704.1,506.4c-2.5,0-4.6,2-4.6,4.6c0,2.5,2,4.6,4.6,4.6c2.5,0,4.6-2,4.6-4.6l0,0
		C708.6,508.5,706.6,506.4,704.1,506.4z"/>
	<path class="st2" d="M739.1,519.1c2.5,0.5,4.9-1.1,5.4-3.6s-1.1-4.9-3.6-5.4s-4.9,1.1-5.4,3.6l0,0
		C735.1,516.2,736.7,518.6,739.1,519.1z"/>
	<path class="st2" d="M771.8,529.3c2.3,1,5-0.1,6-2.4c1-2.3-0.1-5-2.4-6c-2.3-1-5,0.1-6,2.4l0,0
		C768.4,525.6,769.4,528.3,771.8,529.3L771.8,529.3z"/>
	<path class="st2" d="M800.1,539c-1.4,2.1-0.9,4.9,1.2,6.4c2.1,1.4,4.9,0.9,6.4-1.2c1.4-2.1,0.9-4.9-1.2-6.4
		C804.3,536.4,801.5,536.9,800.1,539L800.1,539z"/>
	<circle class="st2" cx="830.3" cy="563.3" r="4.6"/>
	<path class="st2" d="M855.9,587.2c-1.4-2.1-4.3-2.6-6.4-1.2c-2.1,1.4-2.6,4.3-1.2,6.4c1.4,2.1,4.3,2.6,6.4,1.2
		C856.7,592.1,857.3,589.3,855.9,587.2L855.9,587.2z"/>
	<path class="st2" d="M866.8,615.8c-2.3,1-3.4,3.7-2.4,6s3.7,3.4,6,2.4s3.4-3.7,2.4-6l0,0C871.8,615.9,869.1,614.8,866.8,615.8
		L866.8,615.8z"/>
	<path class="st2" d="M879.9,658c2.5-0.5,4.1-2.9,3.6-5.4s-2.9-4.1-5.4-3.6s-4.1,2.9-3.6,5.4l0,0C875,656.9,877.4,658.5,879.9,658z"
		/>
	<path class="st2" d="M887.2,689.5c0-2.5-2.1-4.6-4.6-4.6s-4.6,2.1-4.6,4.6s2.1,4.6,4.6,4.6C885.1,694.1,887.2,692.1,887.2,689.5
		L887.2,689.5z"/>
	<path class="st2" d="M916.2,733.2c0.5-2.5-1.1-4.9-3.6-5.4s-4.9,1.1-5.4,3.6s1.1,4.9,3.6,5.4l0,0
		C913.3,737.3,915.7,735.7,916.2,733.2z"/>
	<path class="st2" d="M897.5,776.4c2.3,1,5-0.1,6-2.4c1-2.3-0.1-5-2.4-6c-2.3-1-5,0.1-6,2.4l0,0
		C894.1,772.7,895.2,775.4,897.5,776.4z"/>
	<path class="st2" d="M882.3,804.5c-2.1-1.4-4.9-0.9-6.4,1.2c-1.4,2.1-0.9,4.9,1.2,6.4c2.1,1.4,4.9,0.9,6.4-1.2
		S884.4,805.9,882.3,804.5z"/>
	<circle class="st2" cx="853.8" cy="839.7" r="4.6"/>
	<path class="st2" d="M826.2,863.1c-1.4-2.1-4.3-2.7-6.4-1.2c-2.1,1.4-2.7,4.3-1.2,6.4c1.4,2.1,4.3,2.7,6.4,1.2l0,0
		C827,868,827.6,865.2,826.2,863.1z"/>
	<path class="st2" d="M790.5,883.5c-1-2.3-3.7-3.4-6-2.4s-3.4,3.7-2.4,6s3.7,3.4,6,2.4l0,0C790.4,888.5,791.5,885.8,790.5,883.5z"/>
	<path class="st2" d="M747.4,902.1c2.5-0.5,4.1-2.9,3.6-5.4s-2.9-4.1-5.4-3.6s-4.1,2.9-3.6,5.4S744.9,902.6,747.4,902.1L747.4,902.1
		z"/>
	<path class="st2" d="M703.6,897.3c-2.5,0-4.6,2.1-4.6,4.6s2.1,4.6,4.6,4.6s4.6-2.1,4.6-4.6S706.2,897.3,703.6,897.3L703.6,897.3z"
		/>
	<path class="st2" d="M661.8,893.1c-2.5-0.5-4.9,1.1-5.4,3.6s1.1,4.9,3.6,5.4s4.9-1.1,5.4-3.6C665.8,896.1,664.2,893.6,661.8,893.1
		L661.8,893.1z"/>
	<path class="st2" d="M619.2,889.5c2.3,1,5-0.1,6-2.4c1-2.3-0.1-5-2.4-6c-2.3-1-5,0.1-6,2.4l0,0
		C615.8,885.8,616.8,888.5,619.2,889.5C619.2,889.4,619.2,889.4,619.2,889.5z"/>
	<path class="st2" d="M588.7,868.2c1.4-2.1,0.9-4.9-1.2-6.3c-2.1-1.4-4.9-0.9-6.3,1.2c-1.4,2.1-0.9,4.9,1.2,6.3
		C584.4,870.9,587.2,870.3,588.7,868.2L588.7,868.2z"/>
	<circle class="st2" cx="553.5" cy="839.7" r="4.6"/>
	<path class="st2" d="M530.1,812.1c2.1-1.4,2.6-4.3,1.2-6.3c-1.4-2.1-4.3-2.6-6.3-1.2c-2.1,1.4-2.6,4.3-1.2,6.3
		C525.1,812.9,528,813.5,530.1,812.1L530.1,812.1z"/>
	<path class="st2" d="M512.1,770.4c-1-2.3-3.7-3.4-6-2.4s-3.4,3.7-2.4,6s3.7,3.4,6,2.4C512,775.4,513.1,772.8,512.1,770.4
		L512.1,770.4z"/>
	<path class="st2" d="M494.6,727.8c-2.5,0.5-4.1,2.9-3.6,5.4s2.9,4.1,5.4,3.6s4.1-2.9,3.6-5.4l0,0
		C499.5,728.9,497.1,727.3,494.6,727.8z"/>
	<path class="st2" d="M495.8,689.5c0-2.5-2.1-4.6-4.6-4.6s-4.6,2.1-4.6,4.6s2.1,4.6,4.6,4.6l0,0
		C493.8,694.1,495.8,692.1,495.8,689.5C495.8,689.6,495.8,689.5,495.8,689.5z"/>
	<path class="st2" d="M496.5,642.2c-2.5-0.5-4.9,1.1-5.4,3.6s1.1,4.9,3.6,5.4s4.9-1.1,5.4-3.6l0,0
		C500.5,645.2,498.9,642.7,496.5,642.2z"/>
	<path class="st2" d="M503.7,605.1c-1,2.3,0.1,5,2.4,6s5-0.1,6-2.4c1-2.3-0.1-5-2.4-6C507.4,601.7,504.7,602.7,503.7,605.1
		L503.7,605.1z"/>
	<path class="st2" d="M531.3,573.3c1.4-2.1,0.9-4.9-1.2-6.3c-2.1-1.4-4.9-0.9-6.3,1.2c-1.4,2.1-0.9,4.9,1.2,6.3
		C527,576,529.9,575.4,531.3,573.3C531.3,573.4,531.3,573.3,531.3,573.3z"/>
	<path class="st2" d="M556.7,542.6c1.8-1.8,1.8-4.7,0-6.5s-4.7-1.8-6.5,0s-1.8,4.7,0,6.5C552,544.4,554.9,544.4,556.7,542.6
		L556.7,542.6z"/>
	<path class="st2" d="M587.4,517.2c2.1-1.4,2.6-4.3,1.2-6.3s-4.3-2.6-6.3-1.2c-2.1,1.4-2.6,4.2-1.2,6.3S585.3,518.6,587.4,517.2
		L587.4,517.2z"/>
	<path class="st2" d="M616.8,495.6c1,2.3,3.7,3.4,6,2.4s3.4-3.7,2.4-6s-3.7-3.4-6-2.4S615.8,493.3,616.8,495.6
		C616.7,495.6,616.7,495.6,616.8,495.6z"/>
	<path class="st2" d="M659.9,477c-2.5,0.5-4.1,2.9-3.6,5.4s2.9,4.1,5.4,3.6s4.1-2.9,3.6-5.4l0,0C664.8,478.1,662.4,476.5,659.9,477
		L659.9,477z"/>
	<path class="st2" d="M703.6,472.6c-2.5,0-4.6,2.1-4.6,4.6s2.1,4.6,4.6,4.6s4.6-2.1,4.6-4.6S706.2,472.6,703.6,472.6L703.6,472.6z"
		/>
	<path class="st2" d="M745.5,485.9c2.5,0.5,4.9-1.1,5.4-3.6s-1.1-4.9-3.6-5.4s-4.9,1.1-5.4,3.6l0,0C741.5,483,743,485.4,745.5,485.9
		z"/>
	<path class="st2" d="M788.1,489.6c-2.3-1-5,0.1-6,2.4s0.1,5,2.4,6c2.3,1,5-0.1,6-2.4l0,0C791.5,493.3,790.4,490.6,788.1,489.6z"/>
	<path class="st2" d="M819.8,517.2c2.1,1.4,4.9,0.9,6.4-1.2c1.4-2.1,0.9-4.9-1.2-6.4s-4.9-0.9-6.4,1.2l0,0
		C817.2,512.9,817.7,515.8,819.8,517.2L819.8,517.2z"/>
	<path class="st2" d="M850.6,542.6c1.8,1.8,4.7,1.8,6.5,0s1.8-4.7,0-6.5s-4.7-1.8-6.5,0C848.8,537.9,848.8,540.8,850.6,542.6
		L850.6,542.6z"/>
	<path class="st2" d="M883.5,568.2c-1.4-2.1-4.3-2.7-6.4-1.2c-2.1,1.4-2.7,4.3-1.2,6.4c1.4,2.1,4.3,2.7,6.4,1.2l0,0
		C884.4,573.2,885,570.3,883.5,568.2C883.6,568.2,883.6,568.2,883.5,568.2z"/>
	<path class="st2" d="M895.1,608.6c1,2.3,3.7,3.4,6,2.4s3.4-3.7,2.4-6s-3.7-3.4-6-2.4l0,0C895.2,603.6,894.1,606.3,895.1,608.6
		L895.1,608.6z"/>
	<path class="st2" d="M907.2,647.6c0.5,2.5,2.9,4.1,5.4,3.6s4.1-2.9,3.6-5.4s-2.9-4.1-5.4-3.6l0,0
		C908.3,642.7,906.7,645.2,907.2,647.6L907.2,647.6z"/>
	<circle class="st2" cx="916" cy="689.5" r="4.6"/>
	<path class="st2" d="M949.1,740.1c0.5-2.5-1.1-4.9-3.6-5.4s-4.9,1.1-5.4,3.6s1.1,4.9,3.6,5.4C946.2,744.2,948.6,742.6,949.1,740.1
		L949.1,740.1z"/>
	<path class="st2" d="M932,781.2c-2.3-1-5,0.1-6,2.4c-1,2.3,0.1,5,2.4,6c2.3,1,5-0.1,6-2.4C935.4,784.9,934.3,782.2,932,781.2
		L932,781.2z"/>
	<path class="st2" d="M911.3,829.8c1.4-2.1,0.9-4.9-1.2-6.4c-2.1-1.4-4.9-0.9-6.4,1.2c-1.4,2.1-0.9,4.9,1.2,6.4l0,0
		C907.1,832.5,909.9,831.9,911.3,829.8L911.3,829.8z"/>
	<circle class="st2" cx="877.5" cy="863.7" r="4.6"/>
	<path class="st2" d="M843.6,897.6c2.1-1.4,2.7-4.3,1.2-6.4c-1.4-2.1-4.3-2.7-6.4-1.2c-2.1,1.4-2.7,4.3-1.2,6.4l0,0
		C838.6,898.5,841.5,899,843.6,897.6L843.6,897.6z"/>
	<path class="st2" d="M794.9,918.3c1,2.3,3.7,3.4,6,2.4s3.4-3.7,2.4-6s-3.7-3.4-6-2.4l0,0C795,913.3,794,916,794.9,918.3
		L794.9,918.3z"/>
	<path class="st2" d="M748.4,931.8c0.5,2.5,2.9,4.1,5.4,3.6s4.1-2.9,3.6-5.4s-2.9-4.1-5.4-3.6l0,0
		C749.5,926.9,747.9,929.3,748.4,931.8z"/>
	<path class="st2" d="M703.3,931.3c-2.5,0-4.6,2-4.6,4.6c0,2.5,2,4.6,4.6,4.6c2.5,0,4.6-2,4.6-4.6l0,0
		C707.8,933.4,705.8,931.3,703.3,931.3z"/>
	<path class="st2" d="M652.7,935.3c2.5,0.5,4.9-1.1,5.4-3.6s-1.1-4.9-3.6-5.4s-4.9,1.1-5.4,3.6C648.6,932.4,650.2,934.8,652.7,935.3
		L652.7,935.3z"/>
	<path class="st2" d="M605.6,920.7c2.3,1,5-0.1,6-2.4c1-2.3-0.1-5-2.4-6c-2.3-1-5,0.1-6,2.4l0,0C602.2,917,603.3,919.7,605.6,920.7
		L605.6,920.7z"/>
	<path class="st2" d="M563,897.6c2.1,1.4,4.9,0.9,6.4-1.2c1.4-2.1,0.9-4.9-1.2-6.4c-2.1-1.4-4.9-0.9-6.4,1.2
		C560.4,893.3,560.9,896.2,563,897.6z"/>
	<path class="st2" d="M532.3,867c1.8-1.8,1.8-4.7,0-6.5s-4.7-1.8-6.5,0s-1.8,4.7,0,6.5S530.5,868.8,532.3,867L532.3,867z"/>
	<path class="st2" d="M496.4,823.5c-2.1,1.4-2.6,4.3-1.2,6.4c1.4,2.1,4.3,2.6,6.4,1.2c2.1-1.4,2.6-4.3,1.2-6.4
		S498.5,822.1,496.4,823.5z"/>
	<path class="st2" d="M472.1,787.2c1,2.3,3.7,3.4,6,2.4s3.4-3.7,2.4-6s-3.7-3.4-6-2.4l0,0C472.2,782.2,471.1,784.8,472.1,787.2
		L472.1,787.2z"/>
	<path class="st2" d="M466.4,738.3c-0.5-2.5-2.9-4.1-5.4-3.6s-4.1,2.9-3.6,5.4s2.9,4.1,5.4,3.6S466.9,740.7,466.4,738.3L466.4,738.3
		z"/>
	<path class="st2" d="M461.5,689.5c0-2.5-2.1-4.6-4.6-4.6s-4.6,2.1-4.6,4.6s2.1,4.6,4.6,4.6S461.5,692.1,461.5,689.5L461.5,689.5z"
		/>
	<path class="st2" d="M457.5,639c-0.5,2.5,1.1,4.9,3.6,5.4s4.9-1.1,5.4-3.6s-1.1-4.9-3.6-5.4S458,636.5,457.5,639z"/>
	<path class="st2" d="M474.5,597.9c2.3,1,5-0.1,6-2.4c1-2.3-0.1-5-2.4-6s-5,0.1-6,2.4l0,0C471.1,594.2,472.2,596.9,474.5,597.9z"/>
	<path class="st2" d="M501.6,548c-2.1-1.4-4.9-0.9-6.4,1.2s-0.9,4.9,1.2,6.4c2.1,1.4,4.9,0.9,6.4-1.2l0,0
		C504.2,552.3,503.7,549.4,501.6,548L501.6,548z"/>
	<path class="st2" d="M532.3,512.1c-1.8-1.8-4.7-1.8-6.5,0s-1.8,4.7,0,6.5s4.7,1.8,6.5,0S534.1,513.9,532.3,512.1z"/>
	<path class="st2" d="M561.7,487.8c1.4,2.1,4.3,2.7,6.4,1.2s2.7-4.3,1.2-6.4c-1.4-2.1-4.3-2.7-6.4-1.2l0,0
		C560.9,482.9,560.3,485.7,561.7,487.8z"/>
	<path class="st2" d="M609.2,466.8c2.3-1,3.4-3.7,2.4-6s-3.7-3.4-6-2.4s-3.4,3.7-2.4,6l0,0C604.1,466.7,606.8,467.7,609.2,466.8
		L609.2,466.8z"/>
	<path class="st2" d="M658.1,447.3c-0.5-2.5-2.9-4.1-5.4-3.6s-4.1,2.9-3.6,5.4s2.9,4.1,5.4,3.6C657,452.2,658.6,449.7,658.1,447.3
		L658.1,447.3z"/>
	<circle class="st2" cx="703.3" cy="443.2" r="4.6"/>
	<path class="st2" d="M757.4,449.1c0.5-2.5-1.1-4.9-3.6-5.4s-4.9,1.1-5.4,3.6s1.1,4.9,3.6,5.4l0,0
		C754.5,453.2,756.9,451.6,757.4,449.1z"/>
	<path class="st2" d="M803.4,464.3c1-2.3-0.1-5-2.4-6c-2.3-1-5,0.1-6,2.4s0.1,5,2.4,6l0,0C799.7,467.7,802.4,466.7,803.4,464.3
		L803.4,464.3z"/>
	<path class="st2" d="M843.6,481.5c-2.1-1.4-4.9-0.9-6.3,1.2c-1.4,2.1-0.9,4.9,1.2,6.3c2.1,1.4,4.9,0.9,6.3-1.2
		C846.2,485.7,845.7,482.9,843.6,481.5L843.6,481.5z"/>
	<path class="st2" d="M874.2,518.6c1.8,1.8,4.7,1.8,6.5,0s1.8-4.7,0-6.5s-4.7-1.8-6.5,0C872.4,513.9,872.4,516.8,874.2,518.6z"/>
	<path class="st2" d="M905,548c-2.1,1.4-2.6,4.3-1.2,6.3c1.4,2.1,4.3,2.6,6.3,1.2c2.1-1.4,2.6-4.2,1.2-6.3
		C909.9,547.1,907.1,546.6,905,548z"/>
	<path class="st2" d="M934.5,591.9c-1-2.3-3.7-3.4-6-2.4s-3.4,3.7-2.4,6s3.7,3.4,6,2.4l0,0C934.4,596.9,935.5,594.2,934.5,591.9
		L934.5,591.9z"/>
	<path class="st2" d="M945.5,644.4c2.5-0.5,4.1-2.9,3.6-5.4s-2.9-4.1-5.4-3.6s-4.1,2.9-3.6,5.4l0,0
		C940.6,643.3,943.1,644.9,945.5,644.4z"/>
	<path class="st2" d="M945,689.5c0,2.5,2,4.6,4.6,4.6s4.6-2,4.6-4.6s-2-4.6-4.6-4.6l0,0C947,685,945,687,945,689.5z"/>
	<path class="st2" d="M978.9,739.5c2.5,0.4,4.8-1.3,5.2-3.8s-1.3-4.8-3.8-5.2s-4.8,1.3-5.2,3.8S976.4,739.1,978.9,739.5L978.9,739.5
		z"/>
	<path class="st2" d="M970.5,773.8c-2.4-0.8-5,0.5-5.8,2.9s0.5,5,2.9,5.8s5-0.5,5.8-2.9C974.1,777.2,972.8,774.6,970.5,773.8z"/>
	<path class="st2" d="M947.9,816.3c-1.1,2.3-0.2,5,2,6.2c2.3,1.1,5,0.2,6.2-2c1.1-2.3,0.3-5-2-6.2
		C951.9,813.1,949.1,814,947.9,816.3L947.9,816.3z"/>
	<path class="st2" d="M932.9,857.8c1.5-2,1-4.9-1-6.4s-4.9-1-6.4,1s-1,4.9,1,6.4S931.4,859.9,932.9,857.8L932.9,857.8z"/>
	<path class="st2" d="M904.4,891c1.8-1.8,1.8-4.7,0-6.5s-4.7-1.8-6.5,0s-1.8,4.7,0,6.5S902.6,892.8,904.4,891L904.4,891z"/>
	<path class="st2" d="M872.2,913.1c-1.5-2-4.4-2.5-6.4-1s-2.5,4.4-1,6.4s4.4,2.5,6.4,1C873.3,918,873.7,915.2,872.2,913.1
		L872.2,913.1z"/>
	<path class="st2" d="M833.9,942.7c2.3-1.1,3.1-3.9,2-6.2s-3.9-3.1-6.2-2s-3.1,3.9-2,6.2l0,0C828.9,942.9,831.6,943.8,833.9,942.7z"
		/>
	<path class="st2" d="M790.1,951.2c-2.4,0.8-3.7,3.4-2.9,5.8c0.8,2.4,3.4,3.7,5.8,2.9s3.7-3.4,2.9-5.8l0,0
		C795.1,951.7,792.5,950.4,790.1,951.2z"/>
	<path class="st2" d="M752.9,965.5c-0.4-2.5-2.8-4.2-5.2-3.8c-2.5,0.4-4.2,2.8-3.8,5.2c0.4,2.5,2.8,4.2,5.2,3.8
		C751.6,970.3,753.3,968,752.9,965.5z"/>
	<path class="st2" d="M703,965.3c-2.5,0-4.6,2.1-4.6,4.6s2.1,4.6,4.6,4.6s4.6-2.1,4.6-4.6S705.5,965.3,703,965.3L703,965.3z"/>
	<path class="st2" d="M658.2,961.7c-2.5-0.4-4.9,1.3-5.3,3.8c-0.4,2.5,1.3,4.9,3.8,5.3c2.5,0.4,4.9-1.3,5.3-3.8l0,0
		C662.4,964.5,660.7,962.1,658.2,961.7z"/>
	<path class="st2" d="M612.9,959.9c2.4,0.8,5-0.5,5.8-2.9s-0.5-5-2.9-5.8s-5,0.5-5.8,2.9l0,0C609.2,956.5,610.5,959.1,612.9,959.9z"
		/>
	<path class="st2" d="M578.2,940.7c1.1-2.3,0.2-5-2-6.1c-2.3-1.1-5-0.2-6.1,2s-0.2,5,2,6.1C574.3,943.8,577,943,578.2,940.7
		L578.2,940.7z"/>
	<path class="st2" d="M541.1,918.5c1.5-2,1-4.9-1-6.4s-4.9-1-6.4,1s-1,4.9,1,6.4l0,0C536.7,921,539.6,920.5,541.1,918.5L541.1,918.5
		z"/>
	<circle class="st2" cx="504.7" cy="887.8" r="4.6"/>
	<path class="st2" d="M479.4,858.8c2-1.5,2.5-4.4,1-6.4s-4.4-2.5-6.4-1s-2.5,4.4-1,6.4l0,0C474.5,859.8,477.4,860.3,479.4,858.8
		L479.4,858.8z"/>
	<path class="st2" d="M449.8,820.5c1.2,2.2,3.9,3.1,6.2,2s3.1-3.9,2-6.2c-1.1-2.2-3.9-3.1-6.1-2
		C449.6,815.4,448.7,818.2,449.8,820.5C449.8,820.4,449.8,820.5,449.8,820.5z"/>
	<path class="st2" d="M441.2,776.7c-0.8-2.4-3.4-3.7-5.8-2.9s-3.7,3.4-2.9,5.8c0.8,2.4,3.4,3.7,5.8,2.9S442,779.1,441.2,776.7z"/>
	<path class="st2" d="M430.8,734.3c-0.4-2.5-2.8-4.2-5.2-3.8s-4.2,2.8-3.8,5.2c0.4,2.5,2.8,4.2,5.2,3.8
		C429.5,739.1,431.2,736.8,430.8,734.3L430.8,734.3z"/>
	<path class="st2" d="M418,689.5c0,2.5,2,4.6,4.6,4.6c2.5,0,4.6-2,4.6-4.6c0-2.5-2-4.6-4.6-4.6l0,0C420.1,685,418,687,418,689.5z"/>
	<path class="st2" d="M427,639.5c-2.5-0.4-4.8,1.3-5.2,3.8c-0.4,2.5,1.3,4.8,3.8,5.2s4.8-1.3,5.2-3.8
		C431.2,642.3,429.5,640,427,639.5z"/>
	<path class="st2" d="M438.3,596.6c-2.4-0.8-5,0.5-5.8,2.9s0.5,5,2.9,5.8s5-0.5,5.8-2.9C442,600,440.8,597.4,438.3,596.6
		C438.4,596.6,438.3,596.6,438.3,596.6z"/>
	<path class="st2" d="M451.8,564.8c2.3,1.1,5,0.2,6.2-2c1.1-2.3,0.2-5-2-6.2c-2.3-1.1-5-0.3-6.2,2
		C448.6,560.8,449.5,563.6,451.8,564.8L451.8,564.8z"/>
	<path class="st2" d="M474,527.7c2,1.5,4.9,1,6.4-1s1-4.9-1-6.4s-4.9-1-6.4,1l0,0C471.5,523.3,472,526.2,474,527.7
		C474,527.6,474,527.6,474,527.7z"/>
	<path class="st2" d="M508,494.5c1.8-1.8,1.8-4.7,0-6.5s-4.7-1.8-6.5,0s-1.8,4.7,0,6.5S506.2,496.3,508,494.5L508,494.5z"/>
	<path class="st2" d="M540.1,467c2-1.5,2.5-4.4,1-6.4s-4.4-2.5-6.4-1s-2.5,4.4-1,6.4C535.2,468,538,468.5,540.1,467L540.1,467z"/>
	<path class="st2" d="M572,436.4c-2.2,1.2-3.1,3.9-1.9,6.2c1.2,2.2,3.9,3.1,6.2,1.9c2.2-1.2,3.1-3.9,1.9-6.2
		C577,436.1,574.3,435.3,572,436.4L572,436.4z"/>
	<path class="st2" d="M615.8,427.8c2.4-0.8,3.7-3.4,2.9-5.8s-3.4-3.7-5.8-2.9c-2.4,0.8-3.7,3.4-2.9,5.8S613.4,428.6,615.8,427.8z"/>
	<path class="st2" d="M653,413.6c0.4,2.5,2.8,4.2,5.2,3.8c2.5-0.4,4.2-2.8,3.8-5.2c-0.4-2.5-2.8-4.2-5.2-3.8
		C654.3,408.7,652.6,411.1,653,413.6z"/>
	<path class="st2" d="M703,404.6c-2.5,0-4.6,2.1-4.6,4.6s2.1,4.6,4.6,4.6s4.6-2.1,4.6-4.6S705.5,404.6,703,404.6L703,404.6z"/>
	<path class="st2" d="M747.7,417.4c2.5,0.4,4.8-1.3,5.2-3.8s-1.3-4.8-3.8-5.2c-2.5-0.4-4.8,1.3-5.2,3.8
		C743.5,414.6,745.2,417,747.7,417.4L747.7,417.4z"/>
	<path class="st2" d="M787.2,422c-0.8,2.4,0.5,5,2.9,5.8s5-0.5,5.8-2.9s-0.5-5-2.9-5.8C790.6,418.3,788,419.6,787.2,422z"/>
	<path class="st2" d="M827.7,438.4c-1.2,2.2-0.3,5,1.9,6.2s5,0.3,6.2-1.9c1.2-2.2,0.3-5-1.9-6.2l0,0
		C831.7,435.3,828.9,436.1,827.7,438.4z"/>
	<path class="st2" d="M864.8,460.6c-1.5,2-1,4.9,1,6.4s4.9,1,6.4-1s1-4.9-1-6.4S866.3,458.5,864.8,460.6L864.8,460.6z"/>
	<path class="st2" d="M898,488.1c-1.8,1.8-1.8,4.7,0,6.5s4.7,1.8,6.5,0s1.8-4.7,0-6.5C902.7,486.3,899.8,486.3,898,488.1L898,488.1z
		"/>
	<path class="st2" d="M926.5,520.3c-2,1.5-2.5,4.4-1,6.4s4.4,2.5,6.4,1s2.5-4.4,1-6.4C931.4,519.2,928.6,518.8,926.5,520.3
		L926.5,520.3z"/>
	<circle class="st2" cx="952" cy="560.7" r="4.6"/>
	<path class="st2" d="M973.3,599.5c-0.8-2.4-3.4-3.7-5.8-2.9c-2.4,0.8-3.7,3.4-2.9,5.8s3.4,3.7,5.8,2.9l0,0
		C972.8,604.5,974.1,601.9,973.3,599.5z"/>
	<path class="st2" d="M975.1,644.8c0.4,2.5,2.8,4.2,5.3,3.8s4.2-2.8,3.8-5.3s-2.8-4.2-5.3-3.8C976.4,639.9,974.7,642.3,975.1,644.8
		L975.1,644.8z"/>
	<path class="st2" d="M978.7,689.5c0,2.5,2,4.6,4.5,4.6s4.6-2,4.6-4.5s-2-4.6-4.5-4.6l0,0C980.8,685,978.7,687,978.7,689.5z"/>
	<path class="st2" d="M1013.7,736c-2.5-0.4-4.8,1.3-5.2,3.8s1.3,4.8,3.8,5.2s4.8-1.3,5.2-3.8C1017.9,738.8,1016.2,736.4,1013.7,736
		L1013.7,736z"/>
	<path class="st2" d="M999.6,793.2c2.4,0.8,5-0.5,5.8-2.9s-0.5-5-2.9-5.8s-5,0.5-5.8,2.9C995.9,789.9,997.2,792.4,999.6,793.2
		L999.6,793.2z"/>
	<path class="st2" d="M979.9,838.1c2.3,1.1,5,0.2,6.1-2c1.1-2.3,0.2-5-2-6.1s-5-0.2-6.1,2C976.7,834.1,977.6,836.9,979.9,838.1
		C979.8,838.1,979.9,838.1,979.9,838.1z"/>
	<path class="st2" d="M960.1,877.9c1.5-2,1-4.9-1-6.4s-4.9-1-6.4,1s-1,4.9,1,6.4l0,0C955.7,880.4,958.6,879.9,960.1,877.9z"/>
	<circle class="st2" cx="925" cy="911.8" r="4.6"/>
	<path class="st2" d="M892,940.5c-1.5-2-4.4-2.5-6.4-1s-2.5,4.4-1,6.4s4.4,2.5,6.4,1C893,945.5,893.5,942.6,892,940.5
		C892,940.6,892,940.6,892,940.5z"/>
	<path class="st2" d="M845,964.8c-2.3,1.1-3.1,3.9-2,6.2s3.9,3.1,6.2,2s3.1-3.9,2-6.2l0,0C850.1,964.5,847.3,963.6,845,964.8z"/>
	<path class="st2" d="M800.6,983.5c-2.4,0.8-3.7,3.4-2.9,5.8c0.8,2.4,3.4,3.7,5.8,2.9c2.4-0.8,3.7-3.4,2.9-5.8
		C805.6,984,803,982.7,800.6,983.5L800.6,983.5z"/>
	<path class="st2" d="M758.2,999.1c-0.4-2.5-2.8-4.2-5.3-3.8s-4.2,2.8-3.8,5.3s2.8,4.2,5.3,3.8
		C756.9,1003.9,758.6,1001.6,758.2,999.1z"/>
	<path class="st2" d="M702.7,999.3c-2.5,0-4.6,2.1-4.6,4.6s2.1,4.6,4.6,4.6s4.6-2.1,4.6-4.6S705.2,999.3,702.7,999.3L702.7,999.3z"
		/>
	<path class="st2" d="M652.4,995.3c-2.5-0.4-4.9,1.3-5.3,3.8s1.3,4.9,3.8,5.3c2.5,0.4,4.9-1.3,5.3-3.8
		C656.6,998,654.9,995.7,652.4,995.3z"/>
	<path class="st2" d="M604.8,983.5c-2.4-0.8-5,0.5-5.8,2.9s0.5,5,2.9,5.8s5-0.5,5.8-2.9C608.4,986.9,607.1,984.3,604.8,983.5z"/>
	<path class="st2" d="M556.1,972.9c2.3,1.1,5,0.2,6.2-2c1.1-2.3,0.2-5-2-6.2c-2.3-1.1-5-0.3-6.2,2
		C552.9,969,553.8,971.7,556.1,972.9L556.1,972.9z"/>
	<path class="st2" d="M514.3,947c2,1.5,4.9,1,6.4-1s1-4.9-1-6.4s-4.9-1-6.4,1S512.2,945.5,514.3,947L514.3,947z"/>
	<circle class="st2" cx="480.4" cy="911.8" r="4.6"/>
	
		<ellipse transform="matrix(0.1523 -0.9883 0.9883 0.1523 -484.4502 1185.5682)" class="st2" cx="448.9" cy="875.2" rx="4.6" ry="4.6"/>
	<path class="st2" d="M427.4,831.9c-1.2-2.2-3.9-3.1-6.2-1.9c-2.2,1.2-3.1,3.9-1.9,6.2c1.2,2.2,3.9,3.1,6.2,1.9
		C427.7,836.9,428.6,834.2,427.4,831.9L427.4,831.9z"/>
	<path class="st2" d="M405.8,793.2c2.4-0.8,3.7-3.4,2.9-5.8c-0.8-2.4-3.4-3.7-5.8-2.9s-3.7,3.4-2.9,5.8l0,0
		C400.8,792.7,403.4,794,405.8,793.2z"/>
	<path class="st2" d="M393.1,745c2.5-0.4,4.2-2.8,3.8-5.2c-0.4-2.5-2.8-4.2-5.2-3.8c-2.5,0.4-4.2,2.8-3.8,5.2
		C388.3,743.7,390.6,745.4,393.1,745L393.1,745z"/>
	<path class="st2" d="M392.9,689.5c0-2.5-2.1-4.6-4.6-4.6s-4.6,2.1-4.6,4.6s2.1,4.6,4.6,4.6S392.9,692.1,392.9,689.5L392.9,689.5z"
		/>
	<path class="st2" d="M391.7,643c2.5,0.4,4.8-1.3,5.2-3.8c0.4-2.5-1.3-4.8-3.8-5.2s-4.8,1.3-5.2,3.8S389.2,642.6,391.7,643
		L391.7,643z"/>
	<path class="st2" d="M405.8,585.8c-2.4-0.8-5,0.5-5.8,2.9s0.5,5,2.9,5.8s5-0.5,5.8-2.9C409.5,589.2,408.2,586.6,405.8,585.8
		L405.8,585.8z"/>
	<path class="st2" d="M427.4,547.2c1.1-2.3,0.2-5-2-6.1s-5-0.2-6.1,2s-0.2,5,2,6.1S426.3,549.4,427.4,547.2z"/>
	<path class="st2" d="M446.2,507.5c2,1.5,4.9,1,6.4-1s1-4.9-1-6.4s-4.9-1-6.4,1l0,0C443.8,503.2,444.2,506.1,446.2,507.5z"/>
	<circle class="st2" cx="480.4" cy="467.2" r="4.6"/>
	<path class="st2" d="M513.3,438.5c1.5,2,4.4,2.5,6.4,1s2.5-4.4,1-6.4s-4.4-2.5-6.4-1l0,0C512.3,433.6,511.8,436.5,513.3,438.5z"/>
	<circle class="st2" cx="558.2" cy="410.2" r="4.6"/>
	<path class="st2" d="M604.8,395.5c2.4-0.8,3.7-3.4,2.9-5.8s-3.4-3.7-5.8-2.9c-2.4,0.8-3.7,3.4-2.9,5.8l0,0
		C599.8,395,602.4,396.3,604.8,395.5z"/>
	<path class="st2" d="M647.2,380c0.4,2.5,2.8,4.2,5.3,3.8c2.5-0.4,4.2-2.8,3.8-5.3s-2.8-4.2-5.3-3.8l0,0
		C648.4,375.2,646.8,377.5,647.2,380z"/>
	<path class="st2" d="M702.7,370.6c-2.5,0-4.6,2.1-4.6,4.6s2.1,4.6,4.6,4.6s4.6-2.1,4.6-4.6S705.2,370.6,702.7,370.6L702.7,370.6z"
		/>
	<path class="st2" d="M752.9,383.8c2.5,0.4,4.9-1.3,5.3-3.8c0.4-2.5-1.3-4.9-3.8-5.3s-4.9,1.3-5.3,3.8l0,0
		C748.7,381,750.4,383.4,752.9,383.8z"/>
	<path class="st2" d="M800.6,395.5c2.4,0.8,5-0.5,5.8-2.9s-0.5-5-2.9-5.8s-5,0.5-5.8,2.9l0,0C796.9,392.1,798.2,394.7,800.6,395.5z"
		/>
	<path class="st2" d="M843.1,408.1c-1.2,2.2-0.3,5,2,6.2c2.2,1.2,5,0.3,6.2-2c1.2-2.2,0.3-5-1.9-6.2
		C847,405,844.3,405.9,843.1,408.1L843.1,408.1z"/>
	<path class="st2" d="M884.7,433.1c-1.5,2-1,4.9,1,6.4s4.9,1,6.4-1s1-4.9-1-6.4l0,0C889,430.6,886.2,431.1,884.7,433.1L884.7,433.1z
		"/>
	<circle class="st2" cx="925" cy="467.2" r="4.6"/>
	<path class="st2" d="M960.1,501.2c-1.5-2-4.4-2.5-6.4-1s-2.5,4.4-1,6.4s4.4,2.5,6.4,1l0,0C961.1,506.1,961.6,503.2,960.1,501.2
		L960.1,501.2z"/>
	<path class="st2" d="M979.9,541c-2.3,1.2-3.1,3.9-2,6.2c1.2,2.3,3.9,3.1,6.2,2c2.2-1.2,3.1-3.9,2-6.2
		C984.9,540.7,982.1,539.8,979.9,541L979.9,541z"/>
	<path class="st2" d="M996.7,591.6c0.8,2.4,3.4,3.7,5.8,2.9c2.4-0.8,3.7-3.4,2.9-5.8c-0.8-2.4-3.4-3.7-5.8-2.9
		C997.2,586.6,995.9,589.2,996.7,591.6L996.7,591.6z"/>
	<path class="st2" d="M1012.2,634c-2.5,0.4-4.2,2.8-3.8,5.2c0.4,2.5,2.8,4.2,5.2,3.8c2.5-0.4,4.2-2.8,3.8-5.2
		C1017.1,635.3,1014.7,633.6,1012.2,634L1012.2,634z"/>
	<path class="st2" d="M1021.6,689.5c0-2.5-2.1-4.6-4.6-4.6s-4.6,2.1-4.6,4.6s2.1,4.6,4.6,4.6l0,0
		C1019.6,694.1,1021.6,692.1,1021.6,689.5C1021.6,689.6,1021.6,689.5,1021.6,689.5z"/>
	<path class="st2" d="M1045.6,750.6c2.5,0.4,4.8-1.3,5.2-3.8c0.4-2.5-1.3-4.8-3.8-5.2s-4.8,1.3-5.2,3.8
		C1041.4,747.8,1043.1,750.2,1045.6,750.6L1045.6,750.6z"/>
	<path class="st2" d="M1037.5,801.1c0.8-2.4-0.5-5-2.9-5.8s-5,0.5-5.8,2.9s0.5,5,2.9,5.8l0,0
		C1034.1,804.8,1036.7,803.5,1037.5,801.1z"/>
	<path class="st2" d="M1016,851.8c1.1-2.3,0.2-5-2-6.2c-2.3-1.1-5-0.2-6.2,2c-1.1,2.3-0.3,5,2,6.2
		C1012.1,854.9,1014.9,854,1016,851.8z"/>
	<path class="st2" d="M980.9,899c2,1.5,4.9,1,6.4-1s1-4.9-1-6.4s-4.9-1-6.4,1l0,0C978.5,894.6,978.9,897.5,980.9,899L980.9,899z"/>
	<circle class="st2" cx="948.8" cy="935.9" r="4.6"/>
	<path class="st2" d="M910.9,974.4c2-1.5,2.5-4.4,1-6.4s-4.4-2.5-6.4-1s-2.5,4.4-1,6.4l0,0C906,975.5,908.9,975.9,910.9,974.4
		L910.9,974.4z"/>
	<path class="st2" d="M864.7,1003.2c2.2-1.2,3.1-3.9,2-6.2c-1.2-2.2-3.9-3.1-6.2-2c-2.2,1.2-3.1,3.9-2,6.2l0,0
		C859.7,1003.4,862.4,1004.3,864.7,1003.2L864.7,1003.2z"/>
	<path class="st2" d="M814,1024.6c2.4-0.8,3.7-3.4,2.9-5.8c-0.8-2.4-3.4-3.7-5.8-2.9c-2.4,0.8-3.7,3.4-2.9,5.8
		C809,1024.1,811.6,1025.4,814,1024.6z"/>
	<path class="st2" d="M758.2,1028.9c-2.5,0.4-4.2,2.8-3.8,5.2c0.4,2.5,2.8,4.2,5.2,3.8c2.5-0.4,4.2-2.8,3.8-5.2
		C763.1,1030.2,760.7,1028.5,758.2,1028.9L758.2,1028.9z"/>
	<path class="st2" d="M702.4,1033.4c-2.5,0-4.6,2-4.6,4.6c0,2.5,2,4.6,4.6,4.6c2.5,0,4.6-2,4.6-4.6l0,0
		C707,1035.5,705,1033.4,702.4,1033.4z"/>
	<path class="st2" d="M646.6,1028.9c-2.5-0.4-4.8,1.3-5.2,3.8s1.3,4.8,3.8,5.2c2.5,0.4,4.8-1.3,5.2-3.8
		C650.8,1031.7,649.1,1029.3,646.6,1028.9L646.6,1028.9z"/>
	<path class="st2" d="M593.7,1015.9c-2.4-0.8-5,0.5-5.8,2.9s0.5,5,2.9,5.8s5-0.5,5.8-2.9C597.4,1019.3,596.1,1016.7,593.7,1015.9
		L593.7,1015.9z"/>
	<path class="st2" d="M544.4,995c-2.3-1.1-5-0.2-6.1,2c-1.1,2.3-0.2,5,2,6.1s5,0.2,6.1-2C547.6,998.9,546.7,996.2,544.4,995
		L544.4,995z"/>
	<path class="st2" d="M499.3,967.1c-2-1.5-4.9-1-6.4,1s-1,4.9,1,6.4s4.9,1,6.4-1C501.8,971.4,501.4,968.6,499.3,967.1
		C499.4,967.1,499.3,967.1,499.3,967.1z"/>
	<path class="st2" d="M452.8,932.7c-1.8,1.8-1.8,4.7,0,6.5s4.7,1.8,6.5,0s1.8-4.7,0-6.5S454.6,930.9,452.8,932.7L452.8,932.7z"/>
	<path class="st2" d="M417.5,898c1.5,2,4.4,2.5,6.4,1s2.5-4.4,1-6.4s-4.4-2.5-6.4-1S416,895.9,417.5,898L417.5,898z"/>
	<path class="st2" d="M395,853.7c2.3-1.1,3.1-3.9,2-6.2s-3.9-3.1-6.2-2c-2.3,1.1-3.1,3.9-2,6.2l0,0C390,854,392.7,854.9,395,853.7z"
		/>
	<path class="st2" d="M376.1,798.2c-0.8-2.4-3.4-3.7-5.8-2.9s-3.7,3.4-2.9,5.8c0.8,2.4,3.4,3.7,5.8,2.9S376.9,800.6,376.1,798.2z"/>
	<path class="st2" d="M363,745.3c-0.4-2.5-2.8-4.2-5.2-3.8s-4.2,2.8-3.8,5.2c0.4,2.5,2.8,4.2,5.2,3.8
		C361.8,750.2,363.5,747.8,363,745.3C363.1,745.3,363.1,745.3,363,745.3z"/>
	<path class="st2" d="M354,694.1c2.5,0,4.6-2.1,4.6-4.6s-2.1-4.6-4.6-4.6s-4.6,2.1-4.6,4.6S351.5,694.1,354,694.1L354,694.1z"/>
	<path class="st2" d="M359.3,628.5c-2.5-0.4-4.8,1.3-5.2,3.8c-0.4,2.5,1.3,4.8,3.8,5.2s4.8-1.3,5.2-3.8
		C363.5,631.3,361.8,628.9,359.3,628.5L359.3,628.5z"/>
	<path class="st2" d="M367.4,578c-0.8,2.4,0.5,5,2.9,5.8s5-0.5,5.8-2.9s-0.5-5-2.9-5.8S368.2,575.6,367.4,578z"/>
	<path class="st2" d="M388.8,527.3c-1.2,2.2-0.3,5,1.9,6.2c2.2,1.2,5,0.3,6.2-1.9s0.3-5-1.9-6.2l0,0
		C392.7,524.2,390,525.1,388.8,527.3z"/>
	<path class="st2" d="M423.9,480c-2-1.5-4.9-1-6.4,1s-1,4.9,1,6.4s4.9,1,6.4-1S426,481.6,423.9,480
		C423.9,480.1,423.9,480.1,423.9,480z"/>
	<path class="st2" d="M452.8,439.9c-1.8,1.8-1.8,4.7,0,6.5s4.7,1.8,6.5,0s1.8-4.7,0-6.5S454.6,438.1,452.8,439.9L452.8,439.9z"/>
	<path class="st2" d="M493.9,404.6c-2,1.5-2.5,4.4-1,6.4s4.4,2.5,6.4,1s2.5-4.4,1-6.4S496,403.1,493.9,404.6L493.9,404.6z"/>
	<path class="st2" d="M540.2,375.9c-2.3,1.2-3.1,3.9-2,6.2c1.2,2.3,3.9,3.1,6.2,2c2.2-1.2,3.1-3.9,2-6.2
		C545.2,375.7,542.5,374.8,540.2,375.9L540.2,375.9z"/>
	<path class="st2" d="M590.8,354.5c-2.4,0.8-3.7,3.4-2.9,5.8s3.4,3.7,5.8,2.9c2.4-0.8,3.7-3.4,2.9-5.8l0,0
		C595.8,355,593.2,353.7,590.8,354.5z"/>
	<path class="st2" d="M645.2,341.1c-2.5,0.4-4.2,2.8-3.8,5.2c0.4,2.5,2.8,4.2,5.2,3.8c2.5-0.4,4.2-2.8,3.8-5.2
		C650,342.4,647.7,340.7,645.2,341.1L645.2,341.1z"/>
	<path class="st2" d="M702.4,336.5c-2.5,0-4.6,2-4.6,4.6c0,2.5,2,4.6,4.6,4.6c2.5,0,4.6-2,4.6-4.6l0,0
		C707,338.6,705,336.5,702.4,336.5z"/>
	<path class="st2" d="M759.7,341.1c-2.5-0.4-4.8,1.3-5.2,3.8s1.3,4.8,3.8,5.2c2.5,0.4,4.8-1.3,5.2-3.8
		C763.9,343.9,762.2,341.5,759.7,341.1L759.7,341.1z"/>
	<path class="st2" d="M811.1,363.2c2.4,0.8,5-0.5,5.8-2.9s-0.5-5-2.9-5.8s-5,0.5-5.8,2.9l0,0C807.4,359.8,808.7,362.4,811.1,363.2z"
		/>
	<path class="st2" d="M860.5,384c2.3,1.1,5,0.2,6.2-2s0.2-5-2-6.2c-2.3-1.1-5-0.3-6.2,2C857.3,380.1,858.2,382.8,860.5,384
		C860.4,384,860.4,384,860.5,384z"/>
	<path class="st2" d="M905.5,412c2,1.5,4.9,1,6.4-1s1-4.9-1-6.4s-4.9-1-6.4,1l0,0C903,407.7,903.5,410.5,905.5,412z"/>
	<path class="st2" d="M952,446.4c1.8-1.8,1.8-4.7,0-6.5s-4.7-1.8-6.5,0s-1.8,4.7,0,6.5C947.4,448.2,950.3,448.2,952,446.4L952,446.4
		z"/>
	<path class="st2" d="M987.3,481c-1.5-2-4.4-2.5-6.4-1s-2.5,4.4-1,6.4s4.4,2.5,6.4,1l0,0C988.4,485.9,988.8,483,987.3,481z"/>
	<path class="st2" d="M1009.9,525.3c-2.2,1.2-3.1,3.9-1.9,6.2s3.9,3.1,6.2,1.9c2.2-1.2,3.1-3.9,1.9-6.2
		C1014.9,525,1012.1,524.2,1009.9,525.3L1009.9,525.3z"/>
	<path class="st2" d="M1028.8,580.8c0.8,2.4,3.4,3.7,5.8,2.9s3.7-3.4,2.9-5.8c-0.8-2.4-3.4-3.7-5.8-2.9l0,0
		C1029.3,575.9,1028,578.4,1028.8,580.8z"/>
	<path class="st2" d="M1047.1,637.5c2.5-0.4,4.2-2.8,3.8-5.2c-0.4-2.5-2.8-4.2-5.2-3.8c-2.5,0.4-4.2,2.8-3.8,5.2
		C1042.2,636.2,1044.6,637.9,1047.1,637.5z"/>
	<circle class="st2" cx="1050.9" cy="689.5" r="4.6"/>
	<path class="st2" d="M1081.2,741.5c-2.5-0.4-4.8,1.4-5.2,3.9c-0.4,2.5,1.4,4.8,3.9,5.2s4.8-1.4,5.2-3.8
		C1085.5,744.2,1083.7,741.9,1081.2,741.5L1081.2,741.5z"/>
	<path class="st2" d="M1069.8,795.6c-2.4-0.7-5,0.6-5.7,3.1c-0.7,2.4,0.6,5,3.1,5.7c2.4,0.7,5-0.6,5.7-3.1
		C1073.6,798.9,1072.2,796.4,1069.8,795.6L1069.8,795.6z"/>
	<path class="st2" d="M1053.3,852.7c1.1-2.3,0.1-5-2.2-6.1c-2.3-1.1-5-0.1-6.1,2.2s-0.1,5,2.2,6.1S1052.2,855,1053.3,852.7
		L1053.3,852.7z"/>
	<path class="st2" d="M1020.6,901.7c2.1,1.4,5,0.8,6.3-1.3c1.4-2.1,0.8-5-1.3-6.3c-2.1-1.4-5-0.8-6.3,1.3l0,0
		C1017.9,897.4,1018.5,900.3,1020.6,901.7C1020.6,901.6,1020.6,901.6,1020.6,901.7z"/>
	<path class="st2" d="M994.3,943.5c1.7-1.9,1.5-4.8-0.4-6.5s-4.8-1.5-6.5,0.4s-1.5,4.8,0.4,6.5l0,0
		C989.8,945.6,992.7,945.4,994.3,943.5z"/>
	<path class="st2" d="M950.1,974.8c-1.9,1.7-2.1,4.5-0.5,6.5c1.7,1.9,4.5,2.1,6.5,0.5c1.9-1.7,2.1-4.5,0.5-6.5l0,0
		C954.9,973.3,952,973.1,950.1,974.8z"/>
	<path class="st2" d="M908,1006.6c-2.1,1.4-2.7,4.2-1.3,6.3s4.2,2.7,6.3,1.3s2.7-4.2,1.3-6.3l0,0
		C913,1005.8,910.1,1005.2,908,1006.6L908,1006.6z"/>
	<path class="st2" d="M861.5,1032.3c-2.3,1.1-3.3,3.8-2.2,6.1s3.8,3.3,6.1,2.2s3.3-3.8,2.2-6.1l0,0
		C866.5,1032.3,863.8,1031.3,861.5,1032.3z"/>
	<path class="st2" d="M811.3,1051.5c-2.4,0.7-3.8,3.3-3.1,5.7c0.7,2.4,3.3,3.8,5.7,3.1c2.4-0.7,3.8-3.3,3.1-5.7
		C816.3,1052.1,813.8,1050.8,811.3,1051.5z"/>
	<path class="st2" d="M758,1063.4c-2.5,0.4-4.2,2.7-3.9,5.2c0.4,2.5,2.7,4.2,5.2,3.9c2.5-0.4,4.2-2.7,3.9-5.2l0,0
		C762.8,1064.7,760.5,1063,758,1063.4L758,1063.4z"/>
	<path class="st2" d="M702.2,1067.5c-2.5,0-4.6,2-4.6,4.6c0,2.5,2,4.6,4.6,4.6c2.5,0,4.6-2,4.6-4.6l0,0
		C706.8,1069.5,704.7,1067.5,702.2,1067.5z"/>
	<ellipse class="st2" cx="645.6" cy="1068" rx="4.6" ry="4.6"/>
	<path class="st2" d="M593,1051.5c-2.4-0.7-5,0.6-5.7,3.1c-0.7,2.4,0.6,5,3.1,5.7c2.4,0.7,5-0.6,5.7-3.1
		C596.8,1054.8,595.4,1052.2,593,1051.5L593,1051.5z"/>
	<path class="st2" d="M542.8,1032.3c-2.3-1.1-5-0.1-6.1,2.2s-0.1,5,2.2,6.1s5,0.1,6.1-2.2l0,0
		C546.1,1036.1,545.1,1033.4,542.8,1032.3z"/>
	<path class="st2" d="M496.4,1006.6c-2.1-1.4-5-0.8-6.3,1.3c-1.4,2.1-0.8,5,1.3,6.3c2.1,1.4,5,0.8,6.3-1.3l0,0
		C499.1,1010.8,498.5,1008,496.4,1006.6L496.4,1006.6z"/>
	<path class="st2" d="M454.7,981.2c1.7-1.9,1.5-4.8-0.4-6.5s-4.8-1.5-6.5,0.4s-1.5,4.8,0.4,6.5l0,0
		C450.1,983.3,453,983.1,454.7,981.2z"/>
	<path class="st2" d="M416.9,937.5c-1.7-1.9-4.5-2.1-6.5-0.5c-1.9,1.7-2.1,4.5-0.5,6.5s4.5,2.1,6.5,0.5l0,0
		C418.4,942.3,418.6,939.4,416.9,937.5z"/>
	
		<ellipse transform="matrix(7.410480e-02 -0.9973 0.9973 7.410480e-02 -542.3093 1211.5375)" class="st2" cx="381.3" cy="897.8" rx="4.6" ry="4.6"/>
	<path class="st2" d="M357.1,854.9c2.3-1.1,3.3-3.8,2.2-6.1c-1.1-2.3-3.8-3.3-6.1-2.2s-3.3,3.8-2.2,6.1l0,0
		C352.1,855,354.8,856,357.1,854.9z"/>
	<path class="st2" d="M337.2,804.4c2.4-0.7,3.8-3.3,3.1-5.7c-0.7-2.4-3.3-3.8-5.7-3.1c-2.4,0.7-3.8,3.3-3.1,5.7
		C332.2,803.7,334.8,805.1,337.2,804.4z"/>
	<path class="st2" d="M324.5,750.6c2.5-0.4,4.2-2.7,3.8-5.2c-0.4-2.5-2.7-4.2-5.2-3.8s-4.2,2.7-3.8,5.2
		C319.6,749.2,322,750.9,324.5,750.6L324.5,750.6z"/>
	<path class="st2" d="M324.2,689.5c0-2.5-2.1-4.6-4.6-4.6s-4.6,2.1-4.6,4.6s2.1,4.6,4.6,4.6l0,0
		C322.2,694.1,324.2,692.1,324.2,689.5C324.2,689.6,324.2,689.5,324.2,689.5z"/>
	<path class="st2" d="M324.5,628.5c-2.5-0.4-4.8,1.4-5.2,3.9c-0.4,2.5,1.4,4.8,3.9,5.2s4.8-1.3,5.2-3.8
		C328.7,631.2,327,628.9,324.5,628.5z"/>
	<path class="st2" d="M334.5,583.4c2.4,0.7,5-0.6,5.7-3.1c0.7-2.4-0.6-5-3.1-5.7s-5,0.6-5.7,3.1l0,0
		C330.8,580.2,332.1,582.7,334.5,583.4z"/>
	<path class="st2" d="M351.1,526.3c-1.1,2.3-0.1,5,2.2,6.1s5,0.1,6.1-2.2s0.1-5-2.2-6.1l0,0C354.8,523.1,352.1,524.1,351.1,526.3z"
		/>
	<path class="st2" d="M378.8,485.1c2.1,1.4,5,0.8,6.3-1.3c1.4-2.1,0.8-5-1.3-6.3c-2.1-1.4-5-0.8-6.3,1.3l0,0
		C376.1,480.9,376.7,483.7,378.8,485.1L378.8,485.1z"/>
	<path class="st2" d="M410.5,442c1.9,1.7,4.8,1.5,6.5-0.4s1.5-4.8-0.4-6.5s-4.8-1.5-6.5,0.4l0,0C408.4,437.5,408.6,440.3,410.5,442z
		"/>
	<path class="st2" d="M454.2,404.3c1.9-1.7,2.1-4.5,0.5-6.5c-1.7-1.9-4.5-2.1-6.5-0.5s-2.1,4.5-0.5,6.5l0,0
		C449.4,405.7,452.3,405.9,454.2,404.3z"/>
	<path class="st2" d="M496.4,372.5c2.1-1.4,2.7-4.2,1.3-6.3c-1.4-2.1-4.2-2.7-6.3-1.3c-2.1,1.4-2.7,4.2-1.3,6.3l0,0
		C491.4,373.2,494.3,373.8,496.4,372.5L496.4,372.5z"/>
	<path class="st2" d="M542.8,346.7c2.3-1.1,3.3-3.8,2.2-6.1c-1.1-2.3-3.8-3.3-6.1-2.2c-2.3,1.1-3.3,3.8-2.2,6.1
		C537.8,346.8,540.6,347.8,542.8,346.7z"/>
	<path class="st2" d="M593,327.6c2.4-0.7,3.8-3.3,3.1-5.7c-0.7-2.4-3.3-3.8-5.7-3.1c-2.4,0.7-3.8,3.3-3.1,5.7
		C588,326.9,590.6,328.3,593,327.6L593,327.6z"/>
	<path class="st2" d="M646.3,315.7c2.5-0.4,4.2-2.7,3.9-5.2c-0.4-2.5-2.7-4.2-5.2-3.9s-4.2,2.7-3.9,5.2l0,0
		C641.5,314.3,643.8,316.1,646.3,315.7z"/>
	<path class="st2" d="M702.2,311.6c2.5,0,4.6-2.1,4.6-4.6s-2.1-4.6-4.6-4.6s-4.6,2-4.6,4.6C697.6,309.5,699.6,311.6,702.2,311.6
		L702.2,311.6z"/>
	<path class="st2" d="M758,315.7c2.5,0.4,4.8-1.3,5.2-3.8s-1.3-4.8-3.8-5.2c-2.5-0.4-4.8,1.3-5.2,3.8l0,0
		C753.8,313,755.5,315.3,758,315.7z"/>
	<path class="st2" d="M811.3,327.6c2.4,0.7,5-0.7,5.7-3.1s-0.7-5-3.1-5.7c-2.4-0.7-5,0.6-5.7,3.1
		C807.5,324.3,808.9,326.9,811.3,327.6L811.3,327.6z"/>
	
		<ellipse transform="matrix(0.9989 -4.675805e-02 4.675805e-02 0.9989 -15.0703 40.7452)" class="st2" cx="863.4" cy="342.5" rx="4.6" ry="4.6"/>
	<path class="st2" d="M908,372.5c2.1,1.4,5,0.8,6.3-1.3c1.4-2.1,0.8-5-1.3-6.3c-2.1-1.4-5-0.8-6.3,1.3l0,0
		C905.3,368.3,905.9,371.1,908,372.5L908,372.5z"/>
	<path class="st2" d="M949.7,397.8c-1.7,1.9-1.5,4.8,0.4,6.5s4.8,1.5,6.5-0.4s1.5-4.8-0.4-6.5l0,0
		C954.2,395.7,951.4,395.9,949.7,397.8z"/>
	<path class="st2" d="M993.9,442c1.9-1.7,2.1-4.6,0.5-6.5s-4.6-2.1-6.5-0.5c-1.9,1.7-2.1,4.6-0.5,6.5l0,0
		C989.1,443.5,992,443.7,993.9,442L993.9,442z"/>
	<path class="st2" d="M1026.9,478.8c-1.4-2.1-4.2-2.7-6.3-1.3c-2.1,1.4-2.7,4.2-1.3,6.3c1.4,2.1,4.2,2.7,6.3,1.3l0,0
		C1027.7,483.7,1028.3,480.9,1026.9,478.8L1026.9,478.8z"/>
	<path class="st2" d="M1047.2,524.1c-2.3,1.1-3.3,3.8-2.2,6.1c1.1,2.3,3.8,3.3,6.1,2.2c2.3-1.1,3.3-3.8,2.2-6.1l0,0
		C1052.2,524.1,1049.5,523.1,1047.2,524.1L1047.2,524.1z"/>
	<path class="st2" d="M1067.2,574.7c-2.4,0.7-3.8,3.3-3.1,5.7c0.7,2.4,3.3,3.8,5.7,3.1c2.4-0.7,3.8-3.3,3.1-5.7l0,0
		C1072.2,575.3,1069.6,573.9,1067.2,574.7L1067.2,574.7z"/>
	<path class="st2" d="M1079.9,628.5c-2.5,0.4-4.2,2.7-3.8,5.2s2.7,4.2,5.2,3.8s4.2-2.7,3.8-5.2
		C1084.7,629.8,1082.4,628.1,1079.9,628.5L1079.9,628.5z"/>
	<path class="st2" d="M1089.3,689.5c0-2.5-2.1-4.6-4.6-4.6s-4.6,2.1-4.6,4.6s2.1,4.6,4.6,4.6l0,0
		C1087.2,694.1,1089.3,692.1,1089.3,689.5C1089.3,689.6,1089.3,689.5,1089.3,689.5z"/>
	<path class="st2" d="M1114.5,748.4c2.5,0.3,4.8-1.5,5.1-4s-1.5-4.8-4-5.1s-4.7,1.5-5.1,4C1110.2,745.8,1112,748.1,1114.5,748.4
		L1114.5,748.4z"/>
	<path class="st2" d="M1109.3,797.2c0.6-2.4-0.8-5-3.3-5.6c-2.4-0.6-5,0.8-5.6,3.3s0.8,5,3.3,5.6l0,0
		C1106.1,801.1,1108.6,799.7,1109.3,797.2L1109.3,797.2z"/>
	<path class="st2" d="M1090.1,841.5c-2.3-1-5,0.2-6,2.5s0.2,5,2.5,6s5-0.2,6-2.5l0,0C1093.5,845.1,1092.4,842.4,1090.1,841.5z"/>
	<path class="st2" d="M1068.2,888.4c-2.2-1.2-5-0.4-6.2,1.8s-0.4,5,1.8,6.2c2.2,1.2,5,0.4,6.2-1.8l0,0
		C1071.2,892.4,1070.4,889.6,1068.2,888.4z"/>
	<path class="st2" d="M1041.9,938.3c1.5-2,1-4.9-1-6.4s-4.9-1-6.4,1s-1,4.9,1,6.4l0,0C1037.6,940.8,1040.4,940.3,1041.9,938.3
		L1041.9,938.3z"/>
	<path class="st2" d="M1008.8,978.1c1.7-1.8,1.7-4.7-0.2-6.5s-4.7-1.7-6.5,0.2s-1.7,4.7,0.2,6.5l0,0
		C1004.2,980,1007.1,979.9,1008.8,978.1z"/>
	<path class="st2" d="M965.3,1006.5c-1.9,1.6-2.2,4.5-0.6,6.4c1.6,1.9,4.5,2.2,6.4,0.6c1.9-1.6,2.2-4.5,0.6-6.4
		C970.1,1005.1,967.2,1004.9,965.3,1006.5L965.3,1006.5z"/>
	<path class="st2" d="M929.3,1044.2c2.1-1.4,2.7-4.2,1.4-6.3c-1.4-2.1-4.2-2.7-6.3-1.4c-2.1,1.4-2.7,4.2-1.4,6.3
		C924.4,1044.9,927.2,1045.5,929.3,1044.2L929.3,1044.2z"/>
	<path class="st2" d="M879.9,1061.3c-2.3,1.1-3.2,3.8-2.1,6.1c1.1,2.3,3.8,3.2,6.1,2.1s3.2-3.8,2.1-6.1
		C884.9,1061.2,882.2,1060.2,879.9,1061.3L879.9,1061.3z"/>
	<path class="st2" d="M835.1,1089.3c2.4-0.8,3.7-3.4,2.9-5.8s-3.4-3.7-5.8-2.9c-2.4,0.8-3.7,3.4-2.9,5.8S832.7,1090.1,835.1,1089.3
		L835.1,1089.3z"/>
	<path class="st2" d="M781.8,1093.9c-2.5,0.5-4.1,2.9-3.6,5.4s2.9,4.1,5.4,3.6s4.1-2.9,3.6-5.4l0,0
		C786.7,1095,784.3,1093.4,781.8,1093.9L781.8,1093.9z"/>
	<path class="st2" d="M733.9,1105c-0.2-2.5-2.3-4.4-4.9-4.3c-2.5,0.2-4.4,2.3-4.3,4.9c0.2,2.5,2.3,4.4,4.9,4.3
		C732.2,1109.7,734.1,1107.5,733.9,1105z"/>
	<path class="st2" d="M674.9,1100.7c-2.5-0.2-4.7,1.8-4.9,4.3s1.8,4.7,4.3,4.9c2.5,0.2,4.7-1.7,4.9-4.3
		C679.3,1103,677.4,1100.9,674.9,1100.7z"/>
	<path class="st2" d="M622.2,1093.9c-2.5-0.5-4.9,1.1-5.4,3.6s1.1,4.9,3.6,5.4s4.9-1.1,5.4-3.6l0,0
		C626.2,1096.8,624.6,1094.3,622.2,1093.9z"/>
	<path class="st2" d="M571.7,1080.6c-2.4-0.8-5,0.5-5.8,2.9s0.5,5,2.9,5.8s5-0.5,5.8-2.9S574.2,1081.4,571.7,1080.6
		C571.8,1080.6,571.7,1080.6,571.7,1080.6z"/>
	<path class="st2" d="M526.2,1067.4c1.1-2.3,0.1-5-2.1-6.1s-5-0.1-6.1,2.1c-1.1,2.3-0.1,5,2.1,6.1l0,0
		C522.4,1070.6,525.1,1069.7,526.2,1067.4z"/>
	<path class="st2" d="M474.6,1044.2c2.1,1.4,5,0.8,6.3-1.4c1.4-2.1,0.8-5-1.4-6.3c-2.1-1.4-5-0.8-6.3,1.4l0,0
		C471.9,1040,472.5,1042.8,474.6,1044.2z"/>
	<path class="st2" d="M438.6,1006.5c-1.9-1.6-4.8-1.3-6.4,0.6s-1.3,4.8,0.6,6.4c1.9,1.6,4.8,1.3,6.4-0.6
		C440.9,1011,440.6,1008.1,438.6,1006.5C438.7,1006.5,438.7,1006.5,438.6,1006.5z"/>
	<path class="st2" d="M401.6,978.3c1.8-1.7,1.9-4.6,0.2-6.5c-1.7-1.8-4.6-1.9-6.5-0.2c-1.8,1.7-1.9,4.6-0.2,6.5
		C396.9,979.9,399.8,980,401.6,978.3L401.6,978.3z"/>
	<path class="st2" d="M363,931.9c-2,1.5-2.5,4.4-1,6.4s4.4,2.5,6.4,1s2.5-4.4,1-6.4S365.1,930.4,363,931.9L363,931.9z"/>
	<path class="st2" d="M340.2,896.3c2.2-1.2,3-4,1.8-6.2s-4-3-6.2-1.8s-3,4-1.8,6.2l0,0C335.2,896.8,338,897.6,340.2,896.3
		C340.2,896.4,340.2,896.4,340.2,896.3z"/>
	<path class="st2" d="M317.3,849.9c2.3-1,3.5-3.6,2.5-6c-1-2.3-3.6-3.5-6-2.5c-2.3,1-3.4,3.6-2.5,5.9
		C312.3,849.8,314.9,850.9,317.3,849.9C317.3,850,317.3,849.9,317.3,849.9z"/>
	<path class="st2" d="M294.7,797.2c0.6,2.4,3.1,3.9,5.6,3.3c2.4-0.6,3.9-3.1,3.3-5.6c-0.6-2.4-3.1-3.9-5.6-3.3l0,0
		C295.5,792.3,294,794.8,294.7,797.2L294.7,797.2z"/>
	<path class="st2" d="M289.4,748.4c2.5-0.3,4.3-2.6,3.9-5.1c-0.3-2.5-2.6-4.3-5.1-3.9c-2.5,0.3-4.3,2.6-3.9,5.1
		C284.6,746.9,286.9,748.7,289.4,748.4L289.4,748.4z"/>
	<path class="st2" d="M289.9,689.5c0-2.5-2.1-4.6-4.6-4.6s-4.6,2.1-4.6,4.6s2.1,4.6,4.6,4.6C287.9,694.1,289.9,692.1,289.9,689.5
		L289.9,689.5z"/>
	<path class="st2" d="M289.4,630.7c-2.5-0.3-4.8,1.4-5.1,4c-0.3,2.5,1.4,4.8,4,5.1c2.5,0.3,4.8-1.4,5.1-3.9
		C293.7,633.3,291.9,631,289.4,630.7z"/>
	<path class="st2" d="M297.9,587.4c2.4,0.6,5-0.8,5.6-3.3c0.6-2.4-0.8-5-3.3-5.6c-2.4-0.6-5,0.8-5.6,3.3l0,0
		C294,584.3,295.5,586.8,297.9,587.4z"/>
	<path class="st2" d="M313.9,537.6c2.3,0.9,5-0.2,6-2.5c0.9-2.3-0.2-5-2.5-6c-2.3-0.9-5,0.2-5.9,2.5
		C310.4,534,311.5,536.6,313.9,537.6L313.9,537.6z"/>
	<path class="st2" d="M342,488.9c1.2-2.2,0.4-5-1.8-6.2c-2.2-1.2-5-0.4-6.2,1.8s-0.4,5,1.8,6.2l0,0C338,491.9,340.8,491.1,342,488.9
		z"/>
	<path class="st2" d="M362,440.8c-1.5,2-1,4.9,1,6.4s4.9,1,6.4-1s1-4.9-1-6.4l0,0C366.4,438.3,363.5,438.7,362,440.8L362,440.8z"/>
	<path class="st2" d="M401.8,407.2c1.7-1.8,1.6-4.7-0.2-6.5s-4.7-1.6-6.5,0.2c-1.7,1.8-1.6,4.7,0.2,6.5l0,0
		C397.2,409.2,400.1,409.1,401.8,407.2z"/>
	<path class="st2" d="M432.8,365.5c-1.9,1.6-2.2,4.5-0.6,6.4s4.5,2.2,6.4,0.6s2.2-4.5,0.6-6.4l0,0
		C437.6,364.2,434.7,363.9,432.8,365.5z"/>
	<path class="st2" d="M479.5,342.6c2.1-1.4,2.7-4.2,1.4-6.3c-1.4-2.1-4.2-2.7-6.3-1.4c-2.1,1.4-2.7,4.2-1.4,6.3l0,0
		C474.6,343.4,477.4,344,479.5,342.6L479.5,342.6z"/>
	<path class="st2" d="M520.1,309.5c-2.3,1.1-3.2,3.8-2.1,6.1c1.1,2.3,3.8,3.2,6.1,2.1s3.2-3.8,2.1-6.1
		C525.1,309.4,522.4,308.4,520.1,309.5L520.1,309.5z"/>
	<path class="st2" d="M568.8,289.8c-2.4,0.8-3.7,3.4-2.9,5.8s3.4,3.7,5.8,2.9c2.4-0.8,3.7-3.4,2.9-5.8S571.2,289,568.8,289.8
		L568.8,289.8z"/>
	<path class="st2" d="M622.2,285.2c2.5-0.5,4.1-2.9,3.6-5.4s-2.9-4.1-5.4-3.6s-4.1,2.9-3.6,5.4l0,0
		C617.3,284.1,619.7,285.7,622.2,285.2z"/>
	<path class="st2" d="M674.9,278.4c2.5-0.2,4.4-2.3,4.3-4.9s-2.3-4.4-4.9-4.3c-2.5,0.2-4.4,2.3-4.3,4.9
		C670.2,276.6,672.4,278.5,674.9,278.4z"/>
	<path class="st2" d="M729.7,269.2c-2.5-0.2-4.7,1.8-4.9,4.3s1.8,4.7,4.3,4.9c2.5,0.2,4.7-1.7,4.9-4.3
		C734.1,271.6,732.2,269.4,729.7,269.2z"/>
	<path class="st2" d="M781.8,285.2c2.5,0.5,4.9-1.1,5.4-3.6s-1.1-4.9-3.6-5.4s-4.9,1.1-5.4,3.6l0,0
		C777.7,282.3,779.3,284.7,781.8,285.2L781.8,285.2z"/>
	<path class="st2" d="M832.2,298.5c2.4,0.8,5-0.5,5.8-2.9s-0.5-5-2.9-5.8s-5,0.5-5.8,2.9S829.8,297.7,832.2,298.5L832.2,298.5z"/>
	<path class="st2" d="M877.8,311.7c-1.1,2.3-0.1,5,2.2,6.1s5,0.1,6.1-2.2c1.1-2.3,0.1-5-2.1-6.1
		C881.6,308.4,878.8,309.4,877.8,311.7L877.8,311.7z"/>
	<path class="st2" d="M929.3,334.9c-2.1-1.4-5-0.8-6.3,1.4c-1.4,2.1-0.8,5,1.4,6.3s5,0.8,6.3-1.4l0,0
		C932.1,339.1,931.5,336.3,929.3,334.9z"/>
	<path class="st2" d="M965.3,372.6c1.9,1.6,4.8,1.4,6.5-0.6s1.4-4.8-0.6-6.5c-1.9-1.6-4.8-1.4-6.5,0.6l0,0
		C963.1,368.1,963.4,371,965.3,372.6z"/>
	
		<ellipse transform="matrix(0.8072 -0.5903 0.5903 0.8072 -44.6739 671.4778)" class="st2" cx="1005.5" cy="404.1" rx="4.6" ry="4.6"/>
	<path class="st2" d="M1040.9,447.2c2-1.5,2.5-4.4,1-6.4s-4.4-2.5-6.4-1s-2.5,4.4-1,6.4S1038.9,448.7,1040.9,447.2L1040.9,447.2z"/>
	<path class="st2" d="M1063.8,482.7c-2.2,1.2-3,4-1.8,6.2s4,3,6.2,1.8s3-4,1.8-6.2l0,0C1068.7,482.3,1066,481.5,1063.8,482.7z"/>
	<path class="st2" d="M1086.6,529.1c-2.3,1-3.5,3.6-2.5,6c1,2.3,3.6,3.5,6,2.5c2.3-1,3.4-3.6,2.5-5.9
		C1091.7,529.3,1089,528.2,1086.6,529.1C1086.7,529.1,1086.6,529.1,1086.6,529.1z"/>
	<path class="st2" d="M1109.3,581.8c-0.6-2.4-3.1-3.9-5.6-3.3c-2.4,0.6-3.9,3.1-3.3,5.6c0.6,2.4,3.1,3.9,5.6,3.3l0,0
		C1108.5,586.8,1109.9,584.3,1109.3,581.8z"/>
	<path class="st2" d="M1115.7,639.8c2.5-0.3,4.3-2.6,3.9-5.1c-0.3-2.5-2.6-4.3-5.1-3.9c-2.5,0.3-4.3,2.6-3.9,5.1
		C1110.9,638.3,1113.2,640.1,1115.7,639.8z"/>
	<path class="st2" d="M1123.2,689.5c0-2.5-2.1-4.6-4.6-4.6s-4.6,2.1-4.6,4.6s2.1,4.6,4.6,4.6l0,0
		C1121.1,694.1,1123.2,692.1,1123.2,689.5L1123.2,689.5z"/>
	<path class="st2" d="M1149.8,739.5c-2.5-0.3-4.8,1.5-5.1,4c-0.3,2.5,1.5,4.8,4,5.1s4.8-1.5,5.1-4l0,0
		C1154.1,742.1,1152.3,739.8,1149.8,739.5z"/>
	<path class="st2" d="M1140.8,792.1c-2.5-0.6-4.9,0.9-5.5,3.4s0.9,4.9,3.4,5.5s4.9-0.9,5.5-3.4l0,0
		C1144.8,795.2,1143.3,792.7,1140.8,792.1z"/>
	<path class="st2" d="M1128.6,848.4c0.9-2.4-0.3-5-2.7-5.9s-5,0.3-5.9,2.7s0.3,5,2.7,5.9l0,0C1125.1,852,1127.8,850.8,1128.6,848.4z
		"/>
	<path class="st2" d="M1101.3,898.5c2.3,1.1,5,0.3,6.2-2c1.1-2.3,0.3-5-2-6.2s-5-0.3-6.2,2l0,0
		C1098.2,894.5,1099.1,897.3,1101.3,898.5L1101.3,898.5z"/>
	<path class="st2" d="M1079.9,935.1c-2.1-1.4-4.9-0.8-6.3,1.3s-0.8,4.9,1.3,6.3c2.1,1.4,4.9,0.8,6.3-1.3
		C1082.6,939.3,1082,936.5,1079.9,935.1L1079.9,935.1z"/>
	<path class="st2" d="M1043.6,983.5c1.9,1.6,4.8,1.3,6.4-0.6c1.6-1.9,1.3-4.8-0.6-6.4c-1.9-1.6-4.8-1.3-6.4,0.6
		C1041.4,978.9,1041.6,981.8,1043.6,983.5C1043.6,983.4,1043.6,983.4,1043.6,983.5z"/>
	<path class="st2" d="M1014.7,1014.1c-1.7-1.8-4.6-1.9-6.5-0.2c-1.8,1.7-1.9,4.6-0.2,6.5c1.7,1.8,4.6,1.9,6.5,0.2
		C1016.3,1018.8,1016.4,1015.9,1014.7,1014.1L1014.7,1014.1z"/>
	<path class="st2" d="M974.9,1053.9c2-1.5,2.4-4.4,0.9-6.4s-4.4-2.4-6.4-0.9s-2.4,4.4-0.9,6.4l0,0
		C970,1055,972.8,1055.4,974.9,1053.9z"/>
	<path class="st2" d="M931.6,1082.7c2.2-1.3,2.9-4.1,1.6-6.3s-4.1-2.9-6.3-1.6s-2.9,4.1-1.6,6.3l0,0
		C926.6,1083.2,929.4,1084,931.6,1082.7L931.6,1082.7z"/>
	<path class="st2" d="M881.4,1098.1c-2.3,1-3.4,3.7-2.4,6s3.7,3.4,6,2.4s3.4-3.7,2.4-6l0,0C886.4,1098.2,883.7,1097.1,881.4,1098.1z
		"/>
	<path class="st2" d="M835.6,1124.9c2.4-0.7,3.8-3.3,3-5.7s-3.3-3.8-5.7-3s-3.8,3.3-3,5.7l0,0
		C830.6,1124.3,833.2,1125.6,835.6,1124.9z"/>
	<path class="st2" d="M782,1128.5c-2.5,0.4-4.1,2.8-3.7,5.3c0.4,2.5,2.8,4.1,5.3,3.7s4.1-2.8,3.7-5.3l0,0
		C786.9,1129.7,784.5,1128.1,782,1128.5z"/>
	<path class="st2" d="M733.8,1139.2c-0.2-2.5-2.3-4.4-4.8-4.3c-2.5,0.2-4.4,2.3-4.3,4.8c0.2,2.5,2.3,4.4,4.8,4.3
		S734,1141.7,733.8,1139.2z"/>
	<path class="st2" d="M674.6,1134.9c-2.5-0.2-4.7,1.8-4.8,4.3c-0.2,2.5,1.8,4.7,4.3,4.8c2.5,0.2,4.7-1.8,4.8-4.3l0,0
		C679,1137.2,677.1,1135.1,674.6,1134.9z"/>
	<path class="st2" d="M621.6,1128.5c-2.5-0.5-4.9,1.2-5.3,3.7c-0.5,2.5,1.2,4.9,3.7,5.3s4.9-1.2,5.3-3.7
		C625.7,1131.4,624.1,1129,621.6,1128.5z"/>
	<path class="st2" d="M570.7,1116.1c-2.4-0.8-5,0.6-5.7,3c-0.8,2.4,0.6,5,3,5.7c2.4,0.8,5-0.6,5.7-3l0,0
		C574.4,1119.4,573.1,1116.9,570.7,1116.1z"/>
	<path class="st2" d="M518.5,1106.5c2.3,1,5,0,6-2.3s0-5-2.3-6s-5,0-6,2.3l0,0C515.2,1102.8,516.2,1105.5,518.5,1106.5z"/>
	<path class="st2" d="M476.6,1074.8c-2.2-1.3-5-0.5-6.3,1.6c-1.3,2.2-0.5,5,1.6,6.3c2.2,1.3,5,0.5,6.3-1.6l0,0
		C479.5,1078.9,478.8,1076.1,476.6,1074.8z"/>
	<path class="st2" d="M434.2,1046.6c-2-1.5-4.9-1.1-6.4,0.9s-1.1,4.9,0.9,6.4s4.9,1.1,6.4-0.9l0,0
		C436.6,1051,436.2,1048.1,434.2,1046.6L434.2,1046.6z"/>
	<path class="st2" d="M395.4,1013.9c-1.8-1.7-4.7-1.6-6.5,0.2c-1.7,1.8-1.6,4.7,0.2,6.5c1.8,1.7,4.7,1.6,6.5-0.2l0,0
		C397.3,1018.5,397.2,1015.6,395.4,1013.9L395.4,1013.9z"/>
	<path class="st2" d="M360,983.5c1.9-1.6,2.2-4.5,0.6-6.5c-1.6-1.9-4.5-2.2-6.5-0.6c-1.9,1.6-2.2,4.5-0.6,6.5l0,0
		C355.2,984.8,358.1,985.1,360,983.5z"/>
	<path class="st2" d="M323.7,935.1c-2.1,1.4-2.7,4.2-1.3,6.3c1.4,2.1,4.2,2.7,6.3,1.3c2.1-1.4,2.7-4.2,1.3-6.3
		C328.6,934.2,325.8,933.7,323.7,935.1L323.7,935.1z"/>
	<path class="st2" d="M302.2,898.5c2.3-1.1,3.1-3.9,2-6.2s-3.9-3.1-6.2-2c-2.3,1.1-3.1,3.9-2,6.2l0,0
		C297.2,898.7,300,899.6,302.2,898.5z"/>
	<path class="st2" d="M283.5,845.2c-0.9-2.4-3.5-3.6-5.9-2.7c-2.4,0.9-3.6,3.5-2.7,5.9s3.5,3.6,5.9,2.7l0,0
		C283.2,850.2,284.4,847.6,283.5,845.2z"/>
	<path class="st2" d="M262.7,792.1c-2.5,0.6-4,3.1-3.4,5.5c0.6,2.5,3.1,4,5.5,3.4s3.9-3.1,3.4-5.5
		C267.7,793,265.2,791.5,262.7,792.1L262.7,792.1z"/>
	<path class="st2" d="M258.8,743.5c-0.3-2.5-2.6-4.3-5.1-4s-4.3,2.6-4,5.1s2.6,4.3,5.1,4l0,0C257.3,748.3,259.1,746,258.8,743.5z"/>
	<circle class="st2" cx="251" cy="689.5" r="4.6"/>
	<path class="st2" d="M253.7,639.6c2.5,0.3,4.8-1.5,5.1-4s-1.5-4.8-4-5.1s-4.8,1.5-5.1,4C249.4,637,251.2,639.3,253.7,639.6z"/>
	<path class="st2" d="M264.9,578c-2.5-0.6-4.9,0.9-5.5,3.4s0.9,4.9,3.4,5.5c2.4,0.6,4.9-0.9,5.5-3.4
		C268.9,581.1,267.4,578.7,264.9,578C264.9,578.1,264.9,578.1,264.9,578z"/>
	<path class="st2" d="M274.9,530.7c-0.9,2.4,0.3,5,2.7,5.9c2.4,0.9,5-0.3,5.9-2.7s-0.3-5-2.7-5.9l0,0
		C278.5,527.1,275.8,528.3,274.9,530.7C274.9,530.6,274.9,530.6,274.9,530.7z"/>
	<circle class="st2" cx="300.2" cy="484.7" r="4.6"/>
	<path class="st2" d="M328.8,436.4c-2.1-1.4-4.9-0.8-6.4,1.3c-1.4,2.1-0.8,4.9,1.3,6.4c2.1,1.4,4.9,0.8,6.4-1.3l0,0
		C331.4,440.6,330.9,437.8,328.8,436.4L328.8,436.4z"/>
	<path class="st2" d="M360.5,402.1c1.6-1.9,1.4-4.8-0.5-6.5c-1.9-1.6-4.8-1.4-6.5,0.5c-1.6,1.9-1.4,4.8,0.5,6.5l0,0
		C356,404.2,358.9,404,360.5,402.1z"/>
	<path class="st2" d="M388.9,365c1.7,1.8,4.6,1.9,6.5,0.2c1.8-1.7,1.9-4.6,0.2-6.5s-4.6-1.9-6.5-0.2l0,0
		C387.3,360.3,387.2,363.2,388.9,365z"/>
	<path class="st2" d="M428.7,325.1c-2,1.5-2.4,4.4-0.9,6.4s4.4,2.4,6.4,0.9s2.4-4.4,0.9-6.4l0,0C433.6,324,430.7,323.6,428.7,325.1z
		"/>
	<path class="st2" d="M472,296.4c-2.2,1.3-2.9,4.1-1.6,6.3c1.3,2.2,4.1,2.9,6.3,1.6c2.2-1.3,2.9-4.1,1.6-6.2
		C477,295.8,474.2,295.1,472,296.4L472,296.4z"/>
	<path class="st2" d="M518.5,272.6c-2.3,1-3.4,3.7-2.4,6s3.7,3.4,6,2.4s3.4-3.7,2.4-6l0,0C523.5,272.6,520.8,271.6,518.5,272.6z"/>
	<path class="st2" d="M568,254.2c-2.4,0.7-3.8,3.3-3,5.7s3.3,3.8,5.7,3c2.4-0.7,3.8-3.3,3-5.7l0,0C573,254.8,570.4,253.4,568,254.2z
		"/>
	
		<ellipse transform="matrix(2.268878e-03 -1 1 2.268878e-03 373.295 866.2546)" class="st2" cx="620.8" cy="246.1" rx="4.6" ry="4.6"/>
	<path class="st2" d="M674.6,244.2c2.5-0.2,4.4-2.3,4.3-4.8c-0.2-2.5-2.3-4.4-4.8-4.3c-2.5,0.2-4.4,2.3-4.3,4.8
		S672.1,244.3,674.6,244.2z"/>
	<path class="st2" d="M729.5,235c-2.5-0.1-4.7,1.8-4.8,4.3s1.8,4.7,4.3,4.8s4.7-1.8,4.8-4.3C734,237.3,732,235.2,729.5,235
		L729.5,235z"/>
	<path class="st2" d="M782,250.5c2.5,0.5,4.9-1.2,5.3-3.7s-1.2-4.9-3.7-5.3s-4.9,1.2-5.3,3.7l0,0C777.9,247.7,779.5,250.1,782,250.5
		L782,250.5z"/>
	<path class="st2" d="M832.9,262.9c2.4,0.8,5-0.6,5.7-3c0.8-2.4-0.6-5-3-5.7c-2.4-0.8-5,0.6-5.7,3l0,0
		C829.2,259.6,830.5,262.2,832.9,262.9z"/>
	<path class="st2" d="M887.4,278.6c1-2.3,0-5-2.3-6s-5,0-6,2.3s0,5,2.3,6l0,0C883.7,282,886.4,280.9,887.4,278.6z"/>
	<path class="st2" d="M927,304.3c2.2,1.3,5,0.5,6.3-1.6c1.3-2.2,0.5-5-1.6-6.3c-2.2-1.3-5-0.5-6.2,1.6
		C924.1,300.2,924.8,303,927,304.3L927,304.3z"/>
	<path class="st2" d="M969.4,332.5c2,1.5,4.9,1.1,6.4-0.9s1.1-4.9-0.9-6.4s-4.9-1.1-6.4,0.9l0,0C967,328.1,967.4,330.9,969.4,332.5z
		"/>
	<path class="st2" d="M1008.2,365.2c1.8,1.7,4.7,1.7,6.5-0.2c1.7-1.8,1.7-4.7-0.2-6.5s-4.7-1.7-6.5,0.2l0,0
		C1006.3,360.6,1006.4,363.5,1008.2,365.2z"/>
	<path class="st2" d="M1043.6,395.6c-1.9,1.6-2.2,4.5-0.5,6.4c1.6,1.9,4.5,2.2,6.4,0.5c1.9-1.6,2.2-4.5,0.5-6.4
		C1048.4,394.2,1045.5,394,1043.6,395.6L1043.6,395.6z"/>
	<path class="st2" d="M1074.8,436.4c-2.1,1.4-2.7,4.2-1.3,6.4c1.4,2.1,4.2,2.7,6.4,1.3c2.1-1.4,2.7-4.2,1.3-6.4l0,0
		C1079.8,435.5,1076.9,435,1074.8,436.4L1074.8,436.4z"/>
	
		<ellipse transform="matrix(0.3079 -0.9514 0.9514 0.3079 302.4925 1385.351)" class="st2" cx="1103.5" cy="484.8" rx="4.6" ry="4.6"/>
	<path class="st2" d="M1120.1,533.8c0.9,2.4,3.5,3.6,5.9,2.7c2.4-0.9,3.6-3.5,2.7-5.9s-3.5-3.6-5.9-2.7l0,0
		C1120.4,528.8,1119.2,531.5,1120.1,533.8L1120.1,533.8z"/>
	<path class="st2" d="M1144.2,581.4c-0.6-2.5-3.1-4-5.5-3.4c-2.5,0.6-4,3.1-3.4,5.5s3.1,4,5.5,3.4l0,0
		C1143.3,586.3,1144.8,583.9,1144.2,581.4z"/>
	<path class="st2" d="M1144.8,635.6c0.3,2.5,2.6,4.3,5.1,4s4.3-2.6,4-5.1s-2.6-4.3-5.1-4C1146.2,630.8,1144.5,633.1,1144.8,635.6z"
		/>
	<circle class="st2" cx="1152.6" cy="689.5" r="4.6"/>
	<path class="st2" d="M1184,739.6c-2.5-0.3-4.8,1.5-5.1,4c-0.3,2.5,1.5,4.8,4,5.1s4.8-1.5,5.1-4l0,0
		C1188.3,742.2,1186.5,739.9,1184,739.6z"/>
	<circle class="st2" cx="1174.6" cy="797" r="4.6"/>
	<path class="st2" d="M1164.4,849.3c0.8-2.4-0.5-5-2.8-5.8c-2.4-0.8-5,0.5-5.8,2.8c-0.8,2.4,0.5,5,2.8,5.8
		C1161,852.9,1163.6,851.7,1164.4,849.3L1164.4,849.3z"/>
	<path class="st2" d="M1142.4,892c-2.3-1.1-5-0.1-6.1,2.2s-0.1,5,2.2,6.1c2.3,1.1,5,0.1,6.1-2.2S1144.7,893.1,1142.4,892L1142.4,892
		z"/>
	<path class="st2" d="M1118.3,937.8c-2.2-1.3-5-0.6-6.3,1.5s-0.6,5,1.5,6.3s5,0.6,6.3-1.5l0,0
		C1121.1,941.9,1120.4,939.1,1118.3,937.8z"/>
	<path class="st2" d="M1089.6,980.5c-2-1.5-4.9-1.2-6.4,0.8s-1.2,4.9,0.8,6.4s4.9,1.2,6.4-0.8l0,0
		C1092,984.9,1091.6,982.1,1089.6,980.5L1089.6,980.5z"/>
	<path class="st2" d="M1050.1,1020.1c-1.7,1.8-1.6,4.7,0.2,6.5s4.7,1.6,6.5-0.2c1.7-1.8,1.6-4.7-0.2-6.5
		C1054.8,1018.2,1051.9,1018.2,1050.1,1020.1L1050.1,1020.1z"/>
	<path class="st2" d="M1019.7,1055.6c-1.6-1.9-4.5-2.2-6.5-0.5c-1.9,1.6-2.2,4.5-0.5,6.5s4.5,2.2,6.5,0.5l0,0
		C1021.1,1060.4,1021.3,1057.5,1019.7,1055.6L1019.7,1055.6z"/>
	<path class="st2" d="M979.2,1087.2c-1.4-2.1-4.3-2.6-6.4-1.2c-2.1,1.4-2.6,4.3-1.2,6.4c1.4,2.1,4.3,2.6,6.3,1.2
		C980.1,1092.2,980.6,1089.3,979.2,1087.2L979.2,1087.2z"/>
	<path class="st2" d="M933.5,1120.7c2.2-1.2,3.1-4,1.9-6.2s-4-3.1-6.2-1.9s-3.1,4-1.9,6.2l0,0
		C928.5,1121.1,931.3,1121.9,933.5,1120.7z"/>
	<path class="st2" d="M886.1,1143.1c2.3-1,3.4-3.6,2.5-6c-1-2.3-3.6-3.4-6-2.5c-2.3,1-3.4,3.6-2.5,5.9
		C881,1142.9,883.7,1144,886.1,1143.1C886,1143.1,886.1,1143.1,886.1,1143.1z"/>
	<path class="st2" d="M836,1160.3c2.4-0.7,3.8-3.2,3.1-5.6s-3.2-3.8-5.6-3.1c-2.4,0.7-3.8,3.2-3.1,5.6
		C831,1159.6,833.6,1161,836,1160.3z"/>
	<path class="st2" d="M782.2,1163.1c-2.5,0.4-4.2,2.8-3.7,5.3c0.4,2.5,2.8,4.2,5.3,3.7c2.5-0.4,4.1-2.8,3.7-5.3
		C787,1164.4,784.7,1162.7,782.2,1163.1L782.2,1163.1z"/>
	<path class="st2" d="M728.9,1169.1c-2.5,0.1-4.5,2.3-4.3,4.8c0.1,2.5,2.3,4.5,4.8,4.3c2.5-0.1,4.5-2.3,4.3-4.8l0,0
		C733.6,1170.9,731.4,1169,728.9,1169.1L728.9,1169.1z"/>
	<path class="st2" d="M674.3,1169.1c-2.5-0.1-4.7,1.8-4.8,4.3s1.8,4.7,4.3,4.8s4.7-1.8,4.8-4.3l0,0
		C678.8,1171.4,676.9,1169.2,674.3,1169.1C674.4,1169.1,674.4,1169.1,674.3,1169.1z"/>
	<path class="st2" d="M621.1,1163.1c-2.5-0.4-4.8,1.3-5.3,3.8c-0.4,2.5,1.3,4.8,3.8,5.3c2.5,0.4,4.8-1.3,5.3-3.7
		C625.2,1165.9,623.6,1163.6,621.1,1163.1z"/>
	<path class="st2" d="M567.2,1160.3c2.4,0.7,5-0.7,5.6-3.2c0.7-2.4-0.7-5-3.2-5.6c-2.4-0.7-4.9,0.7-5.6,3.1
		C563.4,1157.1,564.8,1159.6,567.2,1160.3L567.2,1160.3z"/>
	<path class="st2" d="M520.6,1134.6c-2.3-0.9-5,0.2-6,2.5c-0.9,2.3,0.2,5,2.5,6c2.3,0.9,5-0.2,5.9-2.5
		C524.1,1138.3,523,1135.6,520.6,1134.6L520.6,1134.6z"/>
	<path class="st2" d="M474.1,1112.7c-2.2-1.2-5-0.4-6.2,1.9c-1.2,2.2-0.4,5,1.9,6.2c2.2,1.2,5,0.4,6.2-1.9l0,0
		C477.1,1116.6,476.3,1113.9,474.1,1112.7L474.1,1112.7z"/>
	<path class="st2" d="M430.4,1086c-2.1-1.4-4.9-0.9-6.4,1.2c-1.4,2.1-0.9,4.9,1.2,6.4c2.1,1.4,4.9,0.9,6.3-1.2
		C433,1090.3,432.5,1087.4,430.4,1086z"/>
	<path class="st2" d="M390,1055.1c-1.9-1.6-4.8-1.4-6.5,0.5s-1.4,4.8,0.5,6.5s4.8,1.4,6.5-0.5l0,0
		C392.2,1059.6,391.9,1056.7,390,1055.1L390,1055.1z"/>
	<path class="st2" d="M353.1,1020.1c-1.7-1.8-4.6-1.9-6.5-0.2c-1.8,1.7-1.9,4.6-0.2,6.5c1.7,1.8,4.6,1.9,6.5,0.2l0,0
		C354.8,1024.8,354.8,1021.9,353.1,1020.1z"/>
	
		<ellipse transform="matrix(0.9991 -4.344307e-02 4.344307e-02 0.9991 -42.4554 14.6794)" class="st2" cx="316.5" cy="984.1" rx="4.6" ry="4.6"/>
	<path class="st2" d="M291.2,939.3c-1.3-2.2-4.1-2.8-6.3-1.5c-2.2,1.3-2.8,4.1-1.5,6.3c1.3,2.1,4.1,2.8,6.3,1.5
		S292.6,941.4,291.2,939.3z"/>
	<path class="st2" d="M264.7,900.2c2.3-1.1,3.3-3.8,2.2-6.1c-1.1-2.3-3.8-3.3-6.1-2.2c-2.3,1.1-3.3,3.8-2.2,6.1
		C259.7,900.3,262.4,901.3,264.7,900.2L264.7,900.2z"/>
	<path class="st2" d="M241.6,843.5c-2.4,0.8-3.7,3.4-2.8,5.8c0.8,2.4,3.4,3.7,5.8,2.8s3.7-3.4,2.8-5.8l0,0
		C246.6,843.9,244,842.6,241.6,843.5C241.6,843.4,241.6,843.4,241.6,843.5z"/>
	<path class="st2" d="M233.1,796c-0.6-2.5-3-4-5.5-3.5c-2.5,0.6-4,3-3.5,5.5c0.6,2.5,3,4,5.5,3.5l0,0
		C232.1,800.9,233.7,798.5,233.1,796z"/>
	<path class="st2" d="M220.3,748.7c2.5-0.3,4.4-2.5,4.1-5c-0.3-2.5-2.5-4.4-5-4.1c-2.5,0.3-4.4,2.5-4.1,5v0.1
		C215.6,747.2,217.8,749,220.3,748.7z"/>
	<path class="st2" d="M221.3,689.5c0-2.5-2.1-4.6-4.6-4.6s-4.6,2.1-4.6,4.6s2.1,4.6,4.6,4.6S221.3,692.1,221.3,689.5L221.3,689.5z"
		/>
	<path class="st2" d="M220.3,630.4c-2.5-0.3-4.8,1.5-5.1,4s1.5,4.8,4,5.1s4.8-1.5,5.1-4v-0.1C224.5,632.9,222.7,630.7,220.3,630.4z"
		/>
	<path class="st2" d="M227.7,586.5c2.5,0.6,4.9-1,5.5-3.5s-1-4.9-3.5-5.5c-2.5-0.5-4.9,1-5.5,3.4
		C223.6,583.5,225.2,585.9,227.7,586.5C227.6,586.5,227.6,586.5,227.7,586.5z"/>
	<path class="st2" d="M238.8,529.8c-0.8,2.4,0.4,5,2.8,5.8c2.4,0.8,5-0.4,5.8-2.8c0.8-2.4-0.4-5-2.8-5.8l0,0
		C242.2,526.2,239.6,527.4,238.8,529.8z"/>
	<path class="st2" d="M260.8,487.1c2.3,1.1,5,0.1,6.1-2.2c1.1-2.3,0.1-5-2.2-6.1c-2.3-1.1-5-0.1-6.1,2.2l0,0
		C257.6,483.3,258.5,486,260.8,487.1L260.8,487.1z"/>
	<path class="st2" d="M285,441.3c2.2,1.3,5,0.6,6.3-1.5c1.3-2.2,0.6-5-1.5-6.3c-2.2-1.3-5-0.6-6.3,1.5
		C282.2,437.2,282.9,440,285,441.3z"/>
	<path class="st2" d="M319.2,391.3c-2-1.5-4.9-1.2-6.4,0.9c-1.5,2-1.2,4.9,0.9,6.4c2,1.5,4.9,1.2,6.4-0.8
		C321.6,395.7,321.2,392.8,319.2,391.3L319.2,391.3z"/>
	<path class="st2" d="M353.1,359c1.7-1.8,1.7-4.7-0.2-6.5c-1.8-1.7-4.7-1.7-6.5,0.2c-1.7,1.8-1.7,4.7,0.2,6.5l0,0
		C348.5,360.9,351.4,360.8,353.1,359z"/>
	<path class="st2" d="M383.5,323.5c1.6,1.9,4.5,2.2,6.5,0.5s2.2-4.5,0.5-6.5s-4.5-2.2-6.5-0.5l0,0
		C382.1,318.7,381.9,321.6,383.5,323.5z"/>
	<path class="st2" d="M424.1,291.8c1.4,2.1,4.3,2.6,6.4,1.2s2.6-4.3,1.2-6.4s-4.3-2.6-6.4-1.2l0,0
		C423.2,286.9,422.6,289.8,424.1,291.8z"/>
	<path class="st2" d="M469.7,258.4c-2.2,1.2-3,4-1.8,6.2s4,3,6.2,1.8s3-4,1.8-6.2C474.7,258,472,257.2,469.7,258.4L469.7,258.4z"/>
	<path class="st2" d="M517.2,236c-2.3,1-3.4,3.6-2.5,6s3.6,3.4,6,2.5c2.3-1,3.4-3.6,2.5-5.9C522.2,236.2,519.6,235,517.2,236
		L517.2,236z"/>
	<path class="st2" d="M567.2,218.7c-2.4,0.7-3.8,3.2-3.1,5.6c0.7,2.4,3.2,3.8,5.6,3.1c2.4-0.7,3.8-3.2,3.1-5.6
		C572.2,219.5,569.6,218,567.2,218.7L567.2,218.7z"/>
	<path class="st2" d="M621.1,215.9c2.5-0.4,4.2-2.8,3.8-5.3s-2.8-4.2-5.3-3.8s-4.2,2.8-3.8,5.3l0,0
		C616.2,214.7,618.6,216.4,621.1,215.9z"/>
	<path class="st2" d="M674.3,210c2.5-0.1,4.4-2.3,4.3-4.8c-0.1-2.5-2.3-4.4-4.8-4.3c-2.5,0.1-4.4,2.3-4.3,4.8
		C669.7,208.2,671.8,210.1,674.3,210L674.3,210z"/>
	<path class="st2" d="M729.4,200.8c-2.5-0.1-4.7,1.8-4.8,4.3s1.8,4.7,4.3,4.8s4.7-1.8,4.8-4.3S731.9,201,729.4,200.8z"/>
	<path class="st2" d="M782.2,215.9c2.5,0.4,4.9-1.3,5.3-3.7c0.4-2.5-1.3-4.9-3.7-5.3s-4.9,1.3-5.3,3.7l0,0
		C778,213.1,779.7,215.5,782.2,215.9z"/>
	<path class="st2" d="M836,218.7c-2.4-0.7-5,0.7-5.6,3.2c-0.7,2.4,0.7,5,3.2,5.6c2.4,0.7,4.9-0.7,5.6-3.1
		C839.8,222,838.4,219.4,836,218.7L836,218.7z"/>
	<path class="st2" d="M882.6,244.5c2.3,0.9,5-0.2,5.9-2.5s-0.2-5-2.5-5.9s-5,0.2-5.9,2.5C879.1,240.8,880.2,243.5,882.6,244.5
		L882.6,244.5z"/>
	<path class="st2" d="M929.2,266.4c2.2,1.2,5,0.4,6.2-1.8c1.2-2.2,0.4-5-1.8-6.2s-5-0.4-6.2,1.8l0,0
		C926.1,262.4,926.9,265.2,929.2,266.4C929.1,266.4,929.1,266.4,929.2,266.4z"/>
	<path class="st2" d="M972.8,293c2.1,1.4,4.9,0.9,6.4-1.2c1.4-2.1,0.9-4.9-1.2-6.4c-2.1-1.4-4.9-0.9-6.4,1.2l0,0
		C970.2,288.7,970.7,291.6,972.8,293z"/>
	
		<ellipse transform="matrix(0.9969 -7.880629e-02 7.880629e-02 0.9969 -22.105 81.0809)" class="st2" cx="1016.2" cy="320.6" rx="4.6" ry="4.6"/>
	<path class="st2" d="M1050.3,352.5c-1.8,1.7-1.9,4.6-0.2,6.5s4.6,1.9,6.5,0.2c1.8-1.7,1.9-4.6,0.2-6.5l0,0
		C1055,350.9,1052.1,350.8,1050.3,352.5z"/>
	<path class="st2" d="M1089.6,398.5c2-1.5,2.4-4.4,0.8-6.4c-1.5-2-4.4-2.4-6.4-0.8c-2,1.5-2.4,4.4-0.8,6.4
		C1084.7,399.7,1087.5,400.1,1089.6,398.5C1089.6,398.6,1089.6,398.6,1089.6,398.5z"/>
	<path class="st2" d="M1112,439.8c1.3,2.2,4.1,2.8,6.3,1.5c2.2-1.3,2.8-4.1,1.5-6.3s-4.1-2.8-6.3-1.5l0,0
		C1111.4,434.8,1110.7,437.6,1112,439.8z"/>
	<path class="st2" d="M1138.5,478.8c-2.3,1.1-3.3,3.8-2.2,6.1c1.1,2.3,3.8,3.3,6.1,2.2c2.3-1.1,3.3-3.8,2.2-6.1l0,0
		C1143.5,478.7,1140.8,477.8,1138.5,478.8L1138.5,478.8z"/>
	<path class="st2" d="M1161.6,535.6c2.4-0.8,3.7-3.4,2.8-5.8s-3.4-3.7-5.8-2.8c-2.4,0.8-3.7,3.4-2.8,5.8l0,0
		C1156.6,535.2,1159.2,536.4,1161.6,535.6z"/>
	<ellipse class="st2" cx="1174.6" cy="582" rx="4.6" ry="4.6"/>
	<path class="st2" d="M1183,630.4c-2.5,0.3-4.3,2.6-4,5.1s2.6,4.3,5.1,4s4.3-2.6,4-5.1l0,0C1187.8,631.9,1185.5,630.1,1183,630.4z"
		/>
	<path class="st2" d="M1181.9,689.5c0,2.5,2,4.6,4.6,4.6c2.5,0,4.6-2,4.6-4.6c0-2.5-2-4.6-4.6-4.6l0,0
		C1184,685,1181.9,687,1181.9,689.5z"/>
	<path class="st2" d="M1217.5,745.6c2.5,0.2,4.8-1.6,5-4.1s-1.6-4.8-4.1-5s-4.8,1.6-5,4.1l0,0C1213.2,743.1,1215,745.3,1217.5,745.6
		z"/>
	<path class="st2" d="M1215.1,792c0.5-2.5-1.1-4.9-3.6-5.4s-4.9,1.1-5.4,3.6s1.1,4.9,3.6,5.4l0,0
		C1212.1,796.1,1214.6,794.5,1215.1,792z"/>
	<path class="st2" d="M1199.8,835.1c-2.4-0.7-5,0.6-5.7,3.1c-0.7,2.4,0.6,5,3.1,5.7c2.4,0.7,5-0.6,5.7-3.1
		S1202.3,835.8,1199.8,835.1L1199.8,835.1z"/>
	<path class="st2" d="M1183.8,881.7c-2.3-1-5,0.2-6,2.5s0.2,5,2.5,6s5-0.2,6-2.5C1187.3,885.3,1186.2,882.7,1183.8,881.7
		L1183.8,881.7z"/>
	<path class="st2" d="M1159.3,934.3c2.2,1.2,5,0.3,6.2-1.9s0.3-5-1.9-6.2c-2.2-1.2-5-0.3-6.2,1.9l0,0
		C1156.2,930.3,1157.1,933.1,1159.3,934.3z"/>
	<path class="st2" d="M1139.4,968.3c-2.1-1.4-5-0.8-6.3,1.3c-1.4,2.1-0.8,5,1.3,6.3s5,0.8,6.3-1.3l0,0
		C1142.1,972.5,1141.5,969.7,1139.4,968.3L1139.4,968.3z"/>
	<path class="st2" d="M1111.4,1007.9c-2-1.6-4.9-1.2-6.4,0.8s-1.2,4.9,0.8,6.4c2,1.6,4.8,1.2,6.4-0.7
		C1113.8,1012.3,1113.4,1009.4,1111.4,1007.9z"/>
	<circle class="st2" cx="1076.9" cy="1047.9" r="4.6"/>
	<path class="st2" d="M1045,1084.7c1.9-1.7,2.1-4.6,0.5-6.5s-4.6-2.1-6.5-0.5s-2.1,4.6-0.5,6.5l0,0
		C1040.2,1086.2,1043.1,1086.4,1045,1084.7z"/>
	<path class="st2" d="M1001.4,1107.6c-2,1.5-2.5,4.4-1,6.4s4.4,2.5,6.4,1s2.5-4.4,1-6.4l0,0
		C1006.3,1106.5,1003.4,1106.1,1001.4,1107.6z"/>
	<path class="st2" d="M961.1,1133.8c-2.2,1.3-2.9,4.1-1.6,6.3s4.1,2.9,6.3,1.6s2.9-4.1,1.6-6.2
		C966.1,1133.2,963.3,1132.5,961.1,1133.8L961.1,1133.8z"/>
	<path class="st2" d="M918.3,1156.2c-2.3,1.1-3.3,3.8-2.2,6.1s3.8,3.3,6.1,2.2c2.3-1.1,3.3-3.8,2.2-6.1S920.6,1155.1,918.3,1156.2z"
		/>
	<path class="st2" d="M873.3,1174.6c-2.4,0.8-3.6,3.5-2.8,5.8c0.8,2.4,3.5,3.6,5.8,2.8c2.4-0.8,3.6-3.5,2.8-5.8
		C878.3,1175,875.7,1173.8,873.3,1174.6z"/>
	<circle class="st2" cx="827.4" cy="1193.2" r="4.6"/>
	<path class="st2" d="M778.8,1207.5c2.5-0.4,4.2-2.7,3.9-5.2c-0.4-2.5-2.7-4.2-5.2-3.9c-2.5,0.4-4.2,2.7-3.9,5.2l0,0
		C774,1206.1,776.3,1207.8,778.8,1207.5z"/>
	<path class="st2" d="M731.9,1207.7c-0.1-2.5-2.3-4.5-4.8-4.4s-4.5,2.3-4.4,4.8s2.3,4.5,4.8,4.4l0,0
		C730.1,1212.4,732,1210.2,731.9,1207.7z"/>
	<path class="st2" d="M675.8,1203.4c-2.5-0.1-4.7,1.8-4.8,4.3s1.8,4.7,4.4,4.8c2.5,0.1,4.7-1.8,4.8-4.3
		C680.2,1205.6,678.3,1203.5,675.8,1203.4L675.8,1203.4z"/>
	<path class="st2" d="M625.4,1198.4c-2.5-0.4-4.8,1.4-5.2,3.9s1.4,4.8,3.9,5.2c2.5,0.4,4.8-1.4,5.2-3.9l0,0
		C629.6,1201.1,627.9,1198.8,625.4,1198.4z"/>
	<path class="st2" d="M576.6,1188.8c-2.5-0.6-4.9,0.9-5.5,3.3c-0.6,2.5,0.9,4.9,3.3,5.5c2.5,0.6,4.9-0.9,5.5-3.3
		C580.6,1191.9,579.1,1189.4,576.6,1188.8L576.6,1188.8z"/>
	<path class="st2" d="M529.6,1174.6c-2.4-0.8-5,0.4-5.8,2.8s0.4,5,2.8,5.8c2.4,0.8,5-0.4,5.8-2.8
		C533.2,1178.1,532,1175.4,529.6,1174.6L529.6,1174.6z"/>
	<path class="st2" d="M484.6,1156.2c-2.3-1.1-5-0.1-6.1,2.2c-1.1,2.3-0.1,5,2.2,6.1c2.3,1.1,5,0.1,6.1-2.2
		C487.8,1160,486.9,1157.3,484.6,1156.2L484.6,1156.2z"/>
	<path class="st2" d="M441.8,1133.8c-2.2-1.3-5-0.5-6.2,1.6c-1.3,2.2-0.5,5,1.6,6.2c2.2,1.3,5,0.5,6.2-1.6
		C444.7,1137.9,444,1135.1,441.8,1133.8L441.8,1133.8z"/>
	<path class="st2" d="M402.5,1114c1.5-2,1-4.9-1-6.4s-4.9-1-6.4,1s-1,4.9,1,6.4l0,0C398.2,1116.5,401,1116,402.5,1114z"/>
	<path class="st2" d="M363.9,1077.8c-1.9-1.7-4.8-1.5-6.5,0.4s-1.5,4.8,0.4,6.5s4.8,1.5,6.5-0.4l0,0
		C366,1082.4,365.8,1079.5,363.9,1077.8L363.9,1077.8z"/>
	
		<ellipse transform="matrix(1.221734e-03 -1 1 1.221734e-03 -722.3176 1372.7151)" class="st2" cx="326" cy="1048" rx="4.6" ry="4.6"/>
	<path class="st2" d="M297.9,1008.6c-1.6-2-4.4-2.3-6.4-0.8c-2,1.6-2.3,4.4-0.8,6.4s4.4,2.3,6.4,0.8l0,0
		C299.1,1013.5,299.4,1010.6,297.9,1008.6z"/>
	<path class="st2" d="M268.5,976c2.1-1.4,2.7-4.2,1.3-6.3s-4.2-2.7-6.3-1.3c-2.1,1.4-2.7,4.2-1.3,6.3l0,0
		C263.6,976.8,266.4,977.4,268.5,976L268.5,976z"/>
	<path class="st2" d="M239.3,926.2c-2.2,1.2-3.1,3.9-1.9,6.2c1.2,2.2,3.9,3.1,6.2,1.9c2.2-1.2,3.1-3.9,1.9-6.2l0,0
		C244.3,925.9,241.6,925,239.3,926.2z"/>
	<path class="st2" d="M219.1,881.7c-2.3,1-3.4,3.7-2.5,6c1,2.3,3.7,3.4,6,2.5c2.3-1,3.4-3.6,2.5-5.9
		C224.1,881.8,221.5,880.7,219.1,881.7L219.1,881.7z"/>
	<path class="st2" d="M205.7,843.8c2.4-0.7,3.8-3.3,3.1-5.7s-3.3-3.8-5.7-3.1s-3.8,3.3-3.1,5.7C200.7,843.2,203.3,844.5,205.7,843.8
		L205.7,843.8z"/>
	<path class="st2" d="M191.4,786.6c-2.5,0.5-4.1,2.9-3.6,5.4s2.9,4.1,5.4,3.6s4.1-2.9,3.6-5.4l0,0
		C196.3,787.7,193.9,786.1,191.4,786.6z"/>
	<path class="st2" d="M185.4,745.6c2.5-0.2,4.4-2.5,4.1-5c-0.2-2.5-2.5-4.4-5-4.1s-4.4,2.5-4.1,5l0,0
		C180.6,744,182.8,745.8,185.4,745.6z"/>
	<path class="st2" d="M187,689.5c0-2.5-2.1-4.6-4.6-4.6s-4.6,2.1-4.6,4.6s2.1,4.6,4.6,4.6S187,692.1,187,689.5L187,689.5z"/>
	<path class="st2" d="M185.4,633.5c-2.5-0.2-4.7,1.6-5,4.1c-0.2,2.5,1.6,4.7,4.1,5c2.5,0.2,4.7-1.6,5-4.1
		C189.7,636,187.9,633.7,185.4,633.5z"/>
	<path class="st2" d="M193.2,583.5c-2.5-0.5-4.9,1.1-5.4,3.6s1.1,4.9,3.6,5.4s4.9-1.1,5.4-3.6l0,0
		C197.3,586.4,195.7,584,193.2,583.5z"/>
	<path class="st2" d="M203.1,544c2.4,0.7,5-0.6,5.7-3.1s-0.6-5-3.1-5.7c-2.4-0.7-5,0.6-5.7,3.1l0,0
		C199.3,540.7,200.6,543.3,203.1,544z"/>
	<path class="st2" d="M219.1,497.4c2.3,0.9,5-0.2,5.9-2.5s-0.2-5-2.5-5.9s-5,0.2-5.9,2.5C215.6,493.7,216.7,496.4,219.1,497.4
		L219.1,497.4z"/>
	<path class="st2" d="M243.6,444.8c-2.2-1.2-5-0.3-6.2,1.9c-1.2,2.2-0.3,5,1.9,6.2s5,0.3,6.2-1.9C246.7,448.7,245.8,446,243.6,444.8
		z"/>
	<path class="st2" d="M263.5,410.7c2.1,1.4,5,0.8,6.3-1.3c1.4-2.1,0.8-5-1.3-6.3c-2.1-1.4-5-0.8-6.3,1.3l0,0
		C260.8,406.5,261.4,409.4,263.5,410.7L263.5,410.7z"/>
	<path class="st2" d="M291.4,371.2c2,1.6,4.9,1.2,6.4-0.8c1.6-2,1.2-4.9-0.8-6.4c-2-1.6-4.9-1.2-6.4,0.7
		C289.1,366.7,289.5,369.6,291.4,371.2z"/>
	<circle class="st2" cx="326" cy="331.2" r="4.6"/>
	<path class="st2" d="M357.9,294.4c-1.9,1.7-2.1,4.5-0.4,6.4s4.5,2.1,6.4,0.4s2.1-4.5,0.4-6.4C362.7,292.9,359.8,292.7,357.9,294.4
		C357.9,294.3,357.9,294.3,357.9,294.4z"/>
	<path class="st2" d="M401.5,271.5c2-1.5,2.5-4.3,1-6.4s-4.3-2.5-6.4-1c-2,1.5-2.5,4.3-1,6.4C396.6,272.5,399.4,273,401.5,271.5
		L401.5,271.5z"/>
	<path class="st2" d="M437.2,237.4c-2.2,1.3-2.9,4.1-1.6,6.3s4.1,2.9,6.3,1.6c2.2-1.3,2.9-4.1,1.6-6.3l0,0
		C442.1,236.9,439.4,236.1,437.2,237.4L437.2,237.4z"/>
	<path class="st2" d="M484.6,222.9c2.3-1.1,3.3-3.8,2.2-6.1c-1.1-2.3-3.8-3.3-6.1-2.2c-2.3,1.1-3.3,3.8-2.2,6.1l0,0
		C479.5,223,482.3,223.9,484.6,222.9L484.6,222.9z"/>
	<path class="st2" d="M529.6,204.5c2.4-0.8,3.6-3.5,2.8-5.8c-0.8-2.4-3.5-3.6-5.8-2.8c-2.4,0.8-3.6,3.5-2.8,5.8l0,0
		C524.6,204.1,527.2,205.3,529.6,204.5z"/>
	<ellipse transform="matrix(0.122 -0.9925 0.9925 0.122 320.8276 734.3474)" class="st2" cx="575.5" cy="185.8" rx="4.6" ry="4.6"/>
	<path class="st2" d="M620.2,176.8c0.4,2.5,2.7,4.2,5.2,3.9c2.5-0.4,4.2-2.7,3.9-5.2c-0.4-2.5-2.7-4.2-5.2-3.9l0,0
		C621.6,172,619.8,174.3,620.2,176.8z"/>
	<path class="st2" d="M671,171.4c0.1,2.5,2.3,4.5,4.8,4.3s4.5-2.3,4.3-4.8s-2.3-4.5-4.8-4.3l0,0C672.8,166.7,670.9,168.8,671,171.4
		C671,171.3,671,171.3,671,171.4z"/>
	<path class="st2" d="M727.1,175.7c2.5,0.1,4.7-1.8,4.8-4.3s-1.8-4.7-4.3-4.8s-4.7,1.8-4.8,4.3l0,0
		C722.7,173.4,724.6,175.6,727.1,175.7z"/>
	<path class="st2" d="M777.5,180.6c2.5,0.4,4.8-1.4,5.2-3.9s-1.4-4.8-3.9-5.2s-4.8,1.3-5.2,3.8C773.3,177.9,775,180.3,777.5,180.6z"
		/>
	
		<ellipse transform="matrix(0.1633 -0.9866 0.9866 0.1633 508.9361 971.7986)" class="st2" cx="827.4" cy="185.9" rx="4.6" ry="4.6"/>
	<path class="st2" d="M873.3,204.5c2.4,0.8,5-0.4,5.8-2.8s-0.4-5-2.8-5.8c-2.4-0.8-5,0.4-5.8,2.8l0,0
		C869.7,201,870.9,203.6,873.3,204.5z"/>
	<path class="st2" d="M918.3,222.9c2.3,1.1,5,0.1,6.1-2.2s0.1-5-2.2-6.1s-5-0.1-6.1,2.2l0,0C915.1,219.1,916,221.8,918.3,222.9z"/>
	<path class="st2" d="M961.1,245.3c2.2,1.3,5,0.6,6.3-1.6c1.3-2.2,0.6-5-1.6-6.3s-5-0.6-6.3,1.6l0,0
		C958.2,241.2,958.9,244,961.1,245.3L961.1,245.3z"/>
	<path class="st2" d="M1000.3,265.1c-1.5,2.1-1,4.9,1.1,6.4s4.9,1,6.4-1.1c1.5-2,1-4.9-1-6.4C1004.7,262.6,1001.8,263,1000.3,265.1
		C1000.4,265.1,1000.4,265.1,1000.3,265.1z"/>
	<path class="st2" d="M1039,301.2c1.9,1.7,4.8,1.5,6.5-0.4s1.5-4.8-0.4-6.5s-4.8-1.5-6.5,0.4l0,0
		C1036.9,296.7,1037.1,299.6,1039,301.2z"/>
	
		<ellipse transform="matrix(1 -2.094389e-03 2.094389e-03 1 -0.6911 2.2562)" class="st2" cx="1076.9" cy="331.1" rx="4.6" ry="4.6"/>
	<path class="st2" d="M1105,370.4c1.6,2,4.4,2.3,6.4,0.8c2-1.6,2.3-4.4,0.8-6.4c-1.6-2-4.4-2.3-6.4-0.8l0,0
		C1103.8,365.6,1103.4,368.5,1105,370.4z"/>
	<path class="st2" d="M1134.4,403.1c-2.1,1.4-2.7,4.2-1.3,6.3s4.2,2.7,6.3,1.3c2.1-1.4,2.7-4.2,1.3-6.3l0,0
		C1139.3,402.3,1136.5,401.7,1134.4,403.1L1134.4,403.1z"/>
	<path class="st2" d="M1163.6,452.9c2.2-1.2,3.1-3.9,1.9-6.2c-1.2-2.2-3.9-3.1-6.2-1.9c-2.2,1.2-3.1,3.9-1.9,6.2
		C1158.5,453.2,1161.3,454.1,1163.6,452.9z"/>
	<path class="st2" d="M1183.8,497.4c2.3-1,3.4-3.7,2.5-6c-1-2.3-3.7-3.4-6-2.5c-2.3,1-3.4,3.6-2.5,6
		C1178.7,497.2,1181.4,498.4,1183.8,497.4L1183.8,497.4z"/>
	<path class="st2" d="M1197.2,535.2c-2.4,0.7-3.8,3.3-3.1,5.7c0.7,2.4,3.3,3.8,5.7,3.1c2.4-0.7,3.8-3.3,3.1-5.7l0,0
		C1202.2,535.9,1199.6,534.5,1197.2,535.2L1197.2,535.2z"/>
	<path class="st2" d="M1211.4,592.5c2.5-0.5,4.1-2.9,3.6-5.4s-2.9-4.1-5.4-3.6s-4.1,2.9-3.6,5.4l0,0
		C1206.6,591.4,1209,593,1211.4,592.5z"/>
	<path class="st2" d="M1218.4,642.6c2.5-0.2,4.3-2.5,4.1-5c-0.2-2.5-2.5-4.3-5-4.1s-4.3,2.5-4.1,5
		C1213.7,641,1215.9,642.8,1218.4,642.6L1218.4,642.6z"/>
	<path class="st2" d="M1225.1,689.5c0-2.5-2.1-4.6-4.6-4.6s-4.6,2.1-4.6,4.6s2.1,4.6,4.6,4.6l0,0
		C1223,694.1,1225.1,692.1,1225.1,689.5L1225.1,689.5z"/>
	<path class="st2" d="M1252.3,739.5c-2.7-0.3-5.1,1.7-5.3,4.4s1.7,5.1,4.4,5.3s5.1-1.7,5.3-4.4l0,0
		C1256.9,742.2,1255,739.8,1252.3,739.5z"/>
	<path class="st2" d="M1248.7,798.7c0.5-2.6-1.2-5.2-3.8-5.7s-5.2,1.2-5.7,3.8s1.2,5.2,3.8,5.7
		C1245.6,803.1,1248.2,801.3,1248.7,798.7z"/>
	<path class="st2" d="M1232.5,844.6c-2.6-0.8-5.3,0.7-6.1,3.3c-0.8,2.6,0.7,5.3,3.3,6.1c2.6,0.8,5.3-0.7,6.1-3.3l0,0
		C1236.5,848.1,1235.1,845.4,1232.5,844.6z"/>
	<path class="st2" d="M1215.4,894.3c-2.5-1-5.3,0.2-6.4,2.7c-1,2.5,0.2,5.3,2.7,6.4s5.3-0.2,6.4-2.7l0,0
		C1219.1,898.2,1217.9,895.3,1215.4,894.3L1215.4,894.3z"/>
	<path class="st2" d="M1195.9,948.3c1.3-2.4,0.3-5.3-2.1-6.6s-5.3-0.3-6.6,2.1c-1.3,2.4-0.3,5.3,2.1,6.6l0,0
		C1191.7,951.6,1194.6,950.7,1195.9,948.3z"/>
	<path class="st2" d="M1168,986.7c-2.3-1.5-5.3-0.8-6.8,1.4c-1.5,2.3-0.8,5.3,1.4,6.8c2.3,1.5,5.3,0.8,6.8-1.4l0,0
		C1170.9,991.2,1170.3,988.1,1168,986.7z"/>
	<path class="st2" d="M1138.3,1028.8c-2.1-1.7-5.2-1.3-6.8,0.8s-1.3,5.2,0.8,6.8c2.1,1.7,5.2,1.3,6.8-0.8
		C1140.8,1033.6,1140.4,1030.5,1138.3,1028.8L1138.3,1028.8z"/>
	<path class="st2" d="M1097.9,1068.1c-1.9,1.9-1.8,5,0.2,6.9s5,1.8,6.9-0.2c1.9-1.9,1.8-5-0.2-6.9
		C1102.9,1066.1,1099.8,1066.2,1097.9,1068.1L1097.9,1068.1z"/>
	<path class="st2" d="M1061,1103.4c-2,1.8-2.3,4.8-0.5,6.9c1.8,2,4.8,2.3,6.9,0.5c2-1.8,2.3-4.8,0.5-6.9l0,0
		C1066.1,1101.8,1063,1101.6,1061,1103.4L1061,1103.4z"/>
	<path class="st2" d="M1021,1135.1c-2.2,1.6-2.7,4.6-1.1,6.8c1.6,2.2,4.6,2.7,6.8,1.1c2.2-1.6,2.7-4.6,1.1-6.8l0,0
		C1026.2,1134,1023.2,1133.5,1021,1135.1L1021,1135.1z"/>
	<path class="st2" d="M978,1163c-2.3,1.4-3.1,4.3-1.7,6.7c1.4,2.3,4.3,3.1,6.7,1.7c2.3-1.4,3.1-4.3,1.7-6.7
		C983.3,1162.4,980.3,1161.6,978,1163z"/>
	<path class="st2" d="M932.5,1186.9c-2.4,1.1-3.5,4-2.4,6.5c1.1,2.4,4,3.5,6.5,2.4c2.4-1.1,3.5-4,2.4-6.5l0,0
		C937.8,1186.8,934.9,1185.8,932.5,1186.9L932.5,1186.9z"/>
	<path class="st2" d="M884.5,1206.5c-2.5,0.9-3.9,3.7-3,6.2s3.7,3.9,6.2,3s3.9-3.7,3-6.2S887,1205.6,884.5,1206.5L884.5,1206.5z"/>
	<path class="st2" d="M840.3,1225.2c-0.6-2.6-3.3-4.2-5.9-3.6c-2.6,0.6-4.2,3.3-3.6,5.9c0.6,2.6,3.3,4.2,5.9,3.6l0,0
		C839.3,1230.4,840.9,1227.8,840.3,1225.2z"/>
	<path class="st2" d="M787.9,1236c-0.4-2.7-2.9-4.5-5.5-4.1c-2.7,0.4-4.5,2.9-4.1,5.5c0.4,2.7,2.9,4.5,5.5,4.1
		C786.4,1241.2,788.3,1238.7,787.9,1236L787.9,1236z"/>
	<path class="st2" d="M733.8,1241.8c-0.1-2.7-2.4-4.8-5.1-4.6c-2.7,0.1-4.8,2.4-4.6,5.1c0.1,2.7,2.4,4.8,5.1,4.6l0,0
		C731.8,1246.8,733.9,1244.5,733.8,1241.8L733.8,1241.8z"/>
	<path class="st2" d="M673.9,1237.2c-2.7-0.1-5,1.9-5.1,4.6s1.9,5,4.6,5.1c2.7,0.1,5-1.9,5.1-4.6l0,0
		C678.7,1239.6,676.6,1237.3,673.9,1237.2L673.9,1237.2z"/>
	<path class="st2" d="M620.3,1231.9c-2.7-0.4-5.2,1.4-5.6,4.1s1.4,5.2,4.1,5.6s5.2-1.4,5.6-4.1l0,0
		C624.8,1234.8,622.9,1232.3,620.3,1231.9z"/>
	<path class="st2" d="M568.2,1221.6c-2.6-0.7-5.3,0.9-5.9,3.6c-0.7,2.6,0.9,5.3,3.6,5.9c2.6,0.7,5.3-0.9,5.9-3.5
		C572.4,1224.9,570.9,1222.3,568.2,1221.6C568.3,1221.6,568.2,1221.6,568.2,1221.6z"/>
	<path class="st2" d="M518.1,1206.5c-2.5-0.9-5.3,0.5-6.2,3c-0.9,2.5,0.5,5.3,3,6.2c2.5,0.9,5.3-0.5,6.2-3
		S520.7,1207.4,518.1,1206.5L518.1,1206.5z"/>
	<path class="st2" d="M470.1,1186.9c-2.4-1.1-5.3-0.1-6.5,2.4s-0.1,5.3,2.4,6.5c2.4,1.1,5.3,0.1,6.5-2.4l0,0
		C473.6,1190.9,472.6,1188,470.1,1186.9z"/>
	<path class="st2" d="M424.5,1163c-2.3-1.4-5.3-0.6-6.7,1.7c-1.4,2.3-0.6,5.3,1.7,6.7c2.3,1.4,5.3,0.6,6.7-1.7
		C427.6,1167.4,426.9,1164.4,424.5,1163L424.5,1163z"/>
	<path class="st2" d="M381.6,1135.1c-2.2-1.6-5.2-1.1-6.8,1.1c-1.6,2.2-1.1,5.2,1.1,6.8c2.2,1.6,5.2,1.1,6.8-1.1l0,0
		C384.3,1139.7,383.8,1136.7,381.6,1135.1L381.6,1135.1z"/>
	<path class="st2" d="M341.5,1103.4c-2-1.8-5.1-1.6-6.9,0.5s-1.6,5.1,0.5,6.9c2,1.8,5.1,1.6,6.9-0.5l0,0
		C343.8,1108.2,343.6,1105.1,341.5,1103.4z"/>
	<path class="st2" d="M297.8,1068c-1.9,1.9-2,4.9-0.2,6.9c1.9,1.9,4.9,2,6.9,0.2c1.9-1.9,2-4.9,0.2-6.9
		C302.8,1066.2,299.7,1066.1,297.8,1068L297.8,1068z"/>
	<path class="st2" d="M271.1,1029.6c-1.7-2.1-4.7-2.5-6.9-0.8c-2.1,1.7-2.5,4.7-0.8,6.9s4.7,2.5,6.9,0.8l0,0
		C272.5,1034.8,272.8,1031.7,271.1,1029.6L271.1,1029.6z"/>
	<path class="st2" d="M239.9,994.8c2.3-1.5,2.9-4.5,1.4-6.7c-1.5-2.3-4.5-2.9-6.7-1.4s-2.9,4.5-1.4,6.7l0,0
		C234.6,995.7,237.6,996.3,239.9,994.8z"/>
	<path class="st2" d="M208.8,941.8c-2.4,1.3-3.3,4.2-2,6.6c1.3,2.4,4.2,3.3,6.6,2c2.4-1.3,3.3-4.2,2-6.6l0,0
		C214.1,941.4,211.1,940.5,208.8,941.8z"/>
	<path class="st2" d="M187.2,894.3c-2.5,1-3.7,3.9-2.7,6.4s3.9,3.7,6.4,2.7s3.7-3.9,2.7-6.4l0,0
		C192.5,894.5,189.7,893.3,187.2,894.3L187.2,894.3z"/>
	<path class="st2" d="M176.2,847.9c-0.8-2.6-3.5-4-6.1-3.3c-2.6,0.8-4,3.5-3.3,6.1c0.8,2.6,3.5,4,6.1,3.3l0,0
		C175.5,853.2,176.9,850.5,176.2,847.9z"/>
	<path class="st2" d="M157.7,793c-2.6,0.5-4.4,3.1-3.8,5.7c0.5,2.6,3.1,4.4,5.7,3.8c2.6-0.5,4.4-3.1,3.8-5.7l0,0
		C162.9,794.2,160.4,792.5,157.7,793z"/>
	<circle class="st2" cx="150.7" cy="744.4" r="4.9"/>
	<path class="st2" d="M153,689.5c0-2.7-2.2-4.9-4.9-4.9s-4.9,2.2-4.9,4.9s2.2,4.9,4.9,4.9S153,692.2,153,689.5L153,689.5z"/>
	<circle class="st2" cx="150.8" cy="634.6" r="4.9"/>
	<path class="st2" d="M159.6,576.5c-2.6-0.5-5.2,1.2-5.7,3.8s1.2,5.2,3.8,5.7s5.2-1.2,5.7-3.8l0,0
		C164,579.6,162.2,577.1,159.6,576.5z"/>
	<path class="st2" d="M170.1,534.4c2.6,0.8,5.3-0.7,6.1-3.3s-0.7-5.3-3.3-6.1s-5.3,0.7-6.1,3.3l0,0
		C166.1,530.9,167.5,533.6,170.1,534.4z"/>
	<path class="st2" d="M187.2,484.8c2.5,1,5.3-0.2,6.4-2.7c1-2.5-0.2-5.3-2.7-6.4c-2.5-1-5.3,0.2-6.4,2.7l0,0
		C183.5,480.9,184.7,483.7,187.2,484.8z"/>
	<path class="st2" d="M206.7,430.7c-1.3,2.4-0.3,5.3,2,6.6c2.4,1.3,5.3,0.3,6.6-2c1.3-2.4,0.3-5.3-2-6.6l0,0
		C210.9,427.4,208,428.3,206.7,430.7L206.7,430.7z"/>
	<path class="st2" d="M234.6,392.4c2.3,1.5,5.3,0.8,6.8-1.4c1.5-2.3,0.8-5.3-1.4-6.8s-5.3-0.8-6.8,1.4l0,0
		C231.6,387.9,232.3,390.9,234.6,392.4C234.5,392.4,234.5,392.4,234.6,392.4z"/>
	<path class="st2" d="M264.3,350.2c2.1,1.7,5.2,1.3,6.9-0.8c1.7-2.1,1.3-5.2-0.8-6.9c-2.1-1.7-5.2-1.3-6.9,0.8l0,0
		C261.8,345.5,262.2,348.6,264.3,350.2z"/>
	<path class="st2" d="M297.6,304.2c-1.9,1.9-1.8,5,0.2,6.9s5,1.8,6.9-0.2s1.8-5-0.2-6.9l0,0C302.5,302.2,299.5,302.2,297.6,304.2
		L297.6,304.2z"/>
	<path class="st2" d="M335.1,268.3c-2,1.8-2.3,4.8-0.5,6.9s4.8,2.3,6.9,0.5c2-1.8,2.3-4.8,0.5-6.9l0,0
		C340.2,266.8,337.2,266.6,335.1,268.3z"/>
	<path class="st2" d="M381.6,244c2.2-1.6,2.7-4.6,1.1-6.8s-4.6-2.7-6.8-1.1s-2.7,4.6-1.1,6.8l0,0C376.4,245.1,379.4,245.6,381.6,244
		z"/>
	<path class="st2" d="M424.5,216.1c2.3-1.4,3.1-4.3,1.8-6.7s-4.3-3.1-6.7-1.8c-2.3,1.4-3.1,4.3-1.8,6.7l0,0
		C419.2,216.6,422.2,217.4,424.5,216.1z"/>
	<path class="st2" d="M470.1,192.2c2.4-1.1,3.5-4,2.4-6.5c-1.1-2.4-4-3.5-6.5-2.4c-2.4,1.1-3.5,4-2.4,6.5l0,0
		C464.8,192.2,467.7,193.3,470.1,192.2z"/>
	<path class="st2" d="M518.1,172.5c2.5-0.9,3.9-3.7,3-6.2s-3.7-3.9-6.2-3s-3.9,3.7-3,6.2C512.8,172.1,515.6,173.4,518.1,172.5
		L518.1,172.5z"/>
	<path class="st2" d="M562.3,153.9c0.7,2.6,3.3,4.2,5.9,3.5c2.6-0.7,4.2-3.3,3.5-5.9c-0.7-2.6-3.3-4.2-5.9-3.5
		C563.3,148.6,561.7,151.3,562.3,153.9L562.3,153.9z"/>
	<path class="st2" d="M614.7,143c0.4,2.7,2.9,4.5,5.5,4.1c2.7-0.4,4.5-2.9,4.1-5.5c-0.4-2.7-2.9-4.5-5.5-4.1
		C616.2,137.8,614.3,140.3,614.7,143L614.7,143z"/>
	<path class="st2" d="M668.8,137.2c0.1,2.7,2.4,4.8,5.1,4.6c2.7-0.1,4.8-2.4,4.6-5.1c-0.1-2.7-2.4-4.8-5.1-4.6l0,0
		C670.8,132.3,668.7,134.6,668.8,137.2z"/>
	<path class="st2" d="M728.7,141.9c2.7,0.1,5-1.9,5.1-4.6s-1.9-5-4.6-5.1c-2.7-0.1-5,1.9-5.1,4.6l0,0
		C723.9,139.4,726,141.7,728.7,141.9z"/>
	<path class="st2" d="M782.3,147.1c2.7,0.4,5.1-1.4,5.5-4.1c0.4-2.7-1.4-5.1-4.1-5.5c-2.7-0.4-5.1,1.4-5.5,4.1l0,0
		C777.8,144.3,779.6,146.7,782.3,147.1L782.3,147.1z"/>
	<path class="st2" d="M834.3,157.4c2.6,0.6,5.3-0.9,5.9-3.6s-0.9-5.3-3.6-5.9c-2.6-0.6-5.2,0.9-5.9,3.5
		C830.1,154.2,831.7,156.8,834.3,157.4z"/>
	<path class="st2" d="M884.5,172.5c2.5,0.9,5.3-0.5,6.2-3s-0.5-5.3-3-6.2s-5.3,0.5-6.2,3S881.9,171.6,884.5,172.5
		C884.4,172.5,884.5,172.5,884.5,172.5z"/>
	<path class="st2" d="M936.6,183.3c-2.4-1.1-5.3-0.1-6.5,2.4c-1.1,2.4-0.1,5.3,2.4,6.5s5.3,0.1,6.5-2.4l0,0
		C940.1,187.4,939,184.5,936.6,183.3z"/>
	<path class="st2" d="M978,216.1c2.3,1.4,5.3,0.6,6.7-1.7s0.6-5.3-1.7-6.7s-5.3-0.6-6.7,1.7C974.9,211.7,975.7,214.7,978,216.1
		L978,216.1z"/>
	<path class="st2" d="M1021,244c2.2,1.6,5.2,1.1,6.8-1.1c1.6-2.2,1.1-5.2-1.1-6.8s-5.2-1.1-6.8,1.1
		C1018.3,239.4,1018.8,242.4,1021,244L1021,244z"/>
	<path class="st2" d="M1061,275.7c2,1.8,5.1,1.6,6.9-0.5c1.8-2,1.6-5.1-0.5-6.9s-5.1-1.6-6.9,0.5l0,0
		C1058.8,270.8,1059,273.9,1061,275.7L1061,275.7z"/>
	<path class="st2" d="M1104.8,311.1c1.9-1.9,2-4.9,0.1-6.9c-1.9-1.9-4.9-2-6.9-0.1c-1.9,1.9-2,4.9-0.1,6.9
		C1099.8,312.9,1102.9,312.9,1104.8,311.1L1104.8,311.1z"/>
	<path class="st2" d="M1131.4,349.4c1.7,2.1,4.7,2.5,6.9,0.8s2.5-4.7,0.8-6.9c-1.7-2.1-4.7-2.5-6.9-0.8l0,0
		C1130.1,344.3,1129.8,347.3,1131.4,349.4z"/>
	<path class="st2" d="M1162.7,384.2c-2.3,1.5-2.9,4.5-1.4,6.7c1.5,2.3,4.5,2.9,6.7,1.4c2.3-1.5,2.9-4.5,1.4-6.7l0,0
		C1168,383.4,1165,382.7,1162.7,384.2z"/>
	<path class="st2" d="M1193.8,437.3c2.4-1.3,3.3-4.2,2-6.6s-4.2-3.3-6.6-2s-3.3,4.2-2,6.6C1188.5,437.6,1191.4,438.6,1193.8,437.3
		L1193.8,437.3z"/>
	<path class="st2" d="M1215.4,484.8c2.5-1,3.7-3.9,2.7-6.4s-3.9-3.7-6.4-2.7s-3.7,3.9-2.7,6.4l0,0
		C1210,484.6,1212.9,485.8,1215.4,484.8L1215.4,484.8z"/>
	<path class="st2" d="M1229.7,525.1c-2.6,0.8-4,3.5-3.3,6.1c0.8,2.6,3.5,4,6.1,3.3c2.6-0.8,4-3.5,3.3-6.1l0,0
		C1235,525.8,1232.3,524.3,1229.7,525.1L1229.7,525.1z"/>
	<path class="st2" d="M1244.9,586.1c2.6-0.5,4.4-3.1,3.8-5.7c-0.5-2.6-3.1-4.4-5.7-3.8s-4.4,3.1-3.8,5.7l0,0
		C1239.7,584.9,1242.2,586.6,1244.9,586.1z"/>
	<path class="st2" d="M1247,635.1c0.3,2.7,2.6,4.6,5.3,4.4c2.7-0.3,4.6-2.6,4.4-5.3s-2.6-4.6-5.3-4.4l0,0
		C1248.7,630.1,1246.7,632.4,1247,635.1L1247,635.1z"/>
	<circle class="st2" cx="1254.5" cy="689.5" r="4.9"/>
	<path class="st2" d="M1286.1,743.2c-2.5-0.2-4.8,1.6-5,4.1s1.6,4.8,4.1,5s4.8-1.6,5-4.1l0,0
		C1290.5,745.7,1288.6,743.5,1286.1,743.2z"/>
	<path class="st2" d="M1278.2,799.9c-2.5-0.5-4.9,1.1-5.4,3.6s1.1,4.9,3.6,5.4s4.9-1.1,5.4-3.6l0,0
		C1282.3,802.8,1280.7,800.4,1278.2,799.9z"/>
	<path class="st2" d="M1265,854.8c-2.4-0.7-5,0.6-5.7,3.1c-0.7,2.4,0.6,5,3.1,5.7c2.4,0.7,5-0.6,5.7-3.1
		C1268.8,858.1,1267.4,855.5,1265,854.8L1265,854.8z"/>
	<path class="st2" d="M1246.8,907.5c-2.3-0.9-5,0.2-5.9,2.5s0.2,5,2.5,5.9s5-0.2,5.9-2.5C1250.3,911.2,1249.2,908.5,1246.8,907.5
		L1246.8,907.5z"/>
	<path class="st2" d="M1223.8,957.9c-2.2-1.2-5-0.3-6.2,1.9s-0.3,5,1.9,6.2c2.2,1.2,5,0.3,6.2-1.9l0,0
		C1226.9,961.8,1226.1,959,1223.8,957.9L1223.8,957.9z"/>
	<path class="st2" d="M1196.4,1005.5c-2.1-1.4-5-0.8-6.3,1.3c-1.4,2.1-0.8,5,1.3,6.3s5,0.8,6.3-1.3l0,0
		C1199.1,1009.7,1198.5,1006.9,1196.4,1005.5z"/>
	<path class="st2" d="M1164.8,1050.3c-2-1.6-4.9-1.2-6.4,0.8s-1.2,4.9,0.8,6.4c2,1.6,4.8,1.2,6.4-0.7
		C1167.1,1054.7,1166.8,1051.8,1164.8,1050.3L1164.8,1050.3z"/>
	<path class="st2" d="M1122.7,1091.9c-1.7,1.8-1.7,4.7,0.1,6.5c1.8,1.7,4.7,1.7,6.5-0.1c1.7-1.8,1.7-4.7-0.1-6.5l0,0
		C1127.4,1090,1124.5,1090.1,1122.7,1091.9z"/>
	<path class="st2" d="M1083.5,1129.4c-1.9,1.7-2.1,4.6-0.5,6.5s4.6,2.1,6.5,0.5s2.1-4.6,0.5-6.5l0,0
		C1088.3,1127.9,1085.4,1127.7,1083.5,1129.4z"/>
	<path class="st2" d="M1041,1163.1c-2.1,1.5-2.5,4.3-1,6.4s4.3,2.5,6.4,1c2-1.5,2.5-4.3,1-6.4
		C1045.9,1162.1,1043.1,1161.6,1041,1163.1z"/>
	<path class="st2" d="M995.3,1192.8c-2.2,1.3-2.9,4.1-1.6,6.3s4.1,2.9,6.3,1.6s2.9-4.1,1.6-6.3l0,0
		C1000.3,1192.2,997.5,1191.5,995.3,1192.8z"/>
	<path class="st2" d="M946.8,1218.2c-2.3,1.1-3.3,3.8-2.2,6.1c1.1,2.3,3.8,3.3,6.1,2.2c2.3-1.1,3.3-3.8,2.2-6.1l0,0
		C951.9,1218.1,949.1,1217.1,946.8,1218.2z"/>
	<path class="st2" d="M895.8,1239c-2.4,0.8-3.6,3.5-2.8,5.8c0.8,2.4,3.5,3.6,5.8,2.8c2.4-0.8,3.6-3.5,2.8-5.8l0,0
		C900.9,1239.4,898.2,1238.2,895.8,1239C895.9,1239,895.9,1239,895.8,1239z"/>
	<path class="st2" d="M842.6,1255.1c-2.5,0.6-4,3.1-3.3,5.5s3.1,4,5.5,3.3s4-3.1,3.3-5.5l0,0C847.5,1256,845,1254.5,842.6,1255.1z"
		/>
	<path class="st2" d="M787.3,1266c-2.5,0.4-4.2,2.7-3.9,5.2c0.4,2.5,2.7,4.2,5.2,3.9c2.5-0.4,4.2-2.7,3.9-5.2l0,0
		C792.1,1267.4,789.8,1265.6,787.3,1266z"/>
	<path class="st2" d="M730.2,1271.6c-2.5,0.1-4.5,2.2-4.4,4.8c0.1,2.5,2.2,4.5,4.8,4.4c2.5-0.1,4.5-2.2,4.4-4.8l0,0
		C734.9,1273.5,732.8,1271.5,730.2,1271.6z"/>
	<path class="st2" d="M672.1,1271.6c-2.5-0.1-4.7,1.8-4.8,4.3s1.8,4.7,4.3,4.8c2.5,0.1,4.7-1.8,4.8-4.3l0,0
		C676.5,1273.9,674.6,1271.8,672.1,1271.6z"/>
	<path class="st2" d="M615,1266c-2.5-0.4-4.8,1.4-5.2,3.9s1.4,4.8,3.9,5.2c2.5,0.4,4.8-1.4,5.2-3.9l0,0
		C619.2,1268.7,617.5,1266.4,615,1266z"/>
	<path class="st2" d="M559.7,1255.1c-2.5-0.6-4.9,0.9-5.6,3.3c-0.6,2.5,0.9,4.9,3.3,5.6c2.5,0.6,4.9-0.9,5.6-3.3l0,0
		C563.7,1258.2,562.2,1255.7,559.7,1255.1z"/>
	<path class="st2" d="M506.5,1239c-2.4-0.8-5,0.4-5.8,2.8s0.4,5,2.8,5.8s5-0.4,5.8-2.8l0,0C510.1,1242.5,508.8,1239.8,506.5,1239z"
		/>
	<path class="st2" d="M455.5,1218.2c-2.3-1.1-5-0.1-6.1,2.2c-1.1,2.3-0.1,5,2.2,6.1c2.3,1.1,5,0.1,6.1-2.2
		C458.7,1222,457.7,1219.3,455.5,1218.2L455.5,1218.2z"/>
	<path class="st2" d="M407,1192.8c-2.2-1.3-5-0.6-6.3,1.6s-0.6,5,1.6,6.3s5,0.6,6.3-1.6C409.9,1196.9,409.2,1194.1,407,1192.8
		L407,1192.8z"/>
	<path class="st2" d="M361.4,1163.1c-2-1.5-4.9-1-6.4,1s-1,4.9,1,6.4s4.9,1,6.4-1C363.8,1167.4,363.4,1164.6,361.4,1163.1
		L361.4,1163.1z"/>
	<path class="st2" d="M318.8,1129.4c-1.9-1.7-4.8-1.4-6.4,0.5c-1.7,1.9-1.4,4.8,0.5,6.4s4.8,1.4,6.4-0.4
		C320.9,1133.9,320.7,1131.1,318.8,1129.4L318.8,1129.4z"/>
	<path class="st2" d="M273.1,1091.8c-1.8,1.7-1.9,4.6-0.2,6.5c1.7,1.8,4.6,1.9,6.5,0.2s1.9-4.6,0.2-6.5l0,0
		C277.8,1090.1,274.9,1090.1,273.1,1091.8z"/>
	<path class="st2" d="M237.5,1050.3c-2,1.6-2.3,4.4-0.7,6.4s4.4,2.3,6.4,0.7c2-1.6,2.3-4.4,0.7-6.4
		C242.4,1049,239.5,1048.7,237.5,1050.3z"/>
	<path class="st2" d="M205.9,1005.5c-2.1,1.4-2.7,4.2-1.4,6.3c1.4,2.1,4.2,2.7,6.3,1.4c2.1-1.4,2.7-4.2,1.4-6.3l0,0
		C210.9,1004.8,208,1004.2,205.9,1005.5L205.9,1005.5z"/>
	<path class="st2" d="M178.5,957.9c-2.2,1.2-3.1,3.9-1.9,6.2s3.9,3.1,6.2,1.9c2.2-1.2,3.1-3.9,1.9-6.2l0,0
		C183.5,957.6,180.7,956.7,178.5,957.9L178.5,957.9z"/>
	<path class="st2" d="M155.5,907.5c-2.3,1-3.4,3.7-2.5,6s3.7,3.4,6,2.5c2.3-1,3.4-3.6,2.5-6C160.6,907.7,157.9,906.6,155.5,907.5
		L155.5,907.5z"/>
	<path class="st2" d="M137.3,854.8c-2.4,0.7-3.8,3.3-3.1,5.7s3.3,3.8,5.7,3.1s3.8-3.3,3.1-5.7C142.3,855.4,139.7,854.1,137.3,854.8
		L137.3,854.8z"/>
	<path class="st2" d="M124.1,799.9c-2.5,0.5-4.1,2.9-3.6,5.4s2.9,4.1,5.4,3.6c2.5-0.5,4.1-2.9,3.6-5.4l0,0
		C129,801.1,126.6,799.5,124.1,799.9z"/>
	<path class="st2" d="M121.2,747.3c-0.2-2.5-2.5-4.4-5-4.1c-2.5,0.2-4.4,2.5-4.1,5c0.2,2.5,2.5,4.4,5,4.1l0,0
		C119.6,752.1,121.4,749.9,121.2,747.3z"/>
	<path class="st2" d="M118.3,689.5c0-2.5-2.1-4.6-4.6-4.6s-4.6,2.1-4.6,4.6s2.1,4.6,4.6,4.6C116.3,694.1,118.3,692.1,118.3,689.5
		L118.3,689.5z"/>
	<path class="st2" d="M116.2,635.8c2.5,0.2,4.7-1.6,5-4.1c0.2-2.5-1.6-4.7-4.1-5c-2.5-0.2-4.7,1.6-5,4.1
		C111.8,633.3,113.7,635.6,116.2,635.8z"/>
	<path class="st2" d="M125.9,570.1c-2.5-0.5-4.9,1.1-5.4,3.6s1.1,4.9,3.6,5.4s4.9-1.1,5.4-3.6l0,0C130,573,128.4,570.6,125.9,570.1
		L125.9,570.1z"/>
	<path class="st2" d="M137.3,524.3c2.4,0.7,5-0.6,5.7-3.1c0.7-2.4-0.6-5-3.1-5.7c-2.4-0.7-5,0.6-5.7,3.1
		C133.5,521,134.9,523.5,137.3,524.3L137.3,524.3z"/>
	<path class="st2" d="M155.5,471.5c2.3,1,5-0.2,6-2.5s-0.2-5-2.5-6s-5,0.2-6,2.5C152,467.9,153.2,470.6,155.5,471.5L155.5,471.5z"/>
	<path class="st2" d="M178.5,421.2c2.2,1.2,5,0.3,6.2-1.9s0.3-5-1.9-6.2s-5-0.3-6.2,1.9C175.4,417.3,176.2,420,178.5,421.2
		L178.5,421.2z"/>
	<path class="st2" d="M205.9,373.5c2.1,1.4,5,0.8,6.3-1.3c1.4-2.1,0.8-5-1.3-6.3c-2.1-1.4-5-0.8-6.3,1.3l0,0
		C203.2,369.3,203.8,372.1,205.9,373.5L205.9,373.5z"/>
	<path class="st2" d="M237.5,328.8c2,1.6,4.9,1.2,6.4-0.7c1.6-2,1.2-4.9-0.7-6.4c-2-1.6-4.9-1.2-6.4,0.7l0,0
		C235.2,324.4,235.6,327.2,237.5,328.8z"/>
	<path class="st2" d="M279.6,287.1c1.7-1.8,1.7-4.7-0.1-6.5c-1.8-1.7-4.7-1.7-6.5,0.1s-1.7,4.7,0.1,6.5l0,0
		C274.9,289,277.8,289,279.6,287.1L279.6,287.1z"/>
	<path class="st2" d="M318.8,249.7c1.9-1.7,2.1-4.5,0.4-6.4s-4.5-2.1-6.4-0.4c-1.9,1.7-2.1,4.5-0.4,6.4
		C314,251.1,316.9,251.3,318.8,249.7L318.8,249.7z"/>
	<path class="st2" d="M361.4,216c2-1.5,2.5-4.3,1-6.4c-1.5-2-4.3-2.5-6.4-1c-2,1.5-2.5,4.3-1,6.4l0,0
		C356.5,217,359.3,217.5,361.4,216z"/>
	<path class="st2" d="M407,186.3c2.2-1.3,2.9-4.1,1.6-6.3s-4.1-2.9-6.3-1.6c-2.2,1.3-2.9,4.1-1.6,6.3l0,0
		C402,186.8,404.8,187.6,407,186.3L407,186.3z"/>
	<path class="st2" d="M455.5,160.9c2.3-1.1,3.3-3.8,2.2-6.1c-1.1-2.3-3.8-3.3-6.1-2.2c-2.3,1.1-3.3,3.8-2.2,6.1l0,0
		C450.4,161,453.2,162,455.5,160.9z"/>
	<path class="st2" d="M506.5,140c2.4-0.8,3.6-3.5,2.8-5.8c-0.8-2.4-3.5-3.6-5.8-2.8c-2.4,0.8-3.6,3.5-2.8,5.8
		C501.5,139.6,504.1,140.8,506.5,140z"/>
	<path class="st2" d="M559.7,124c2.5-0.6,3.9-3.1,3.3-5.5c-0.6-2.5-3.1-3.9-5.5-3.3c-2.5,0.6-3.9,3.1-3.3,5.5
		C554.8,123.1,557.3,124.6,559.7,124L559.7,124z"/>
	
		<ellipse transform="matrix(0.5958 -0.8031 0.8031 0.5958 161.1445 537.2308)" class="st2" cx="614.3" cy="108.5" rx="4.6" ry="4.6"/>
	<path class="st2" d="M672.1,107.4c2.5-0.1,4.5-2.3,4.3-4.8s-2.3-4.5-4.8-4.3c-2.5,0.1-4.5,2.3-4.3,4.8l0,0
		C667.4,105.6,669.5,107.6,672.1,107.4L672.1,107.4z"/>
	<path class="st2" d="M730.2,107.4c2.5,0.1,4.7-1.8,4.8-4.3s-1.8-4.7-4.3-4.8c-2.5-0.1-4.7,1.8-4.8,4.3l0,0
		C725.8,105.2,727.7,107.3,730.2,107.4z"/>
	<path class="st2" d="M787.3,113c2.5,0.4,4.8-1.4,5.2-3.9s-1.4-4.8-3.9-5.2c-2.5-0.4-4.8,1.4-5.2,3.8
		C783,110.3,784.8,112.6,787.3,113L787.3,113z"/>
	<path class="st2" d="M842.6,124c2.5,0.6,4.9-0.9,5.5-3.3c0.6-2.5-0.9-4.9-3.3-5.5c-2.5-0.6-4.9,0.9-5.5,3.3
		C838.6,120.9,840.1,123.4,842.6,124L842.6,124z"/>
	<path class="st2" d="M895.8,140c2.4,0.8,5-0.4,5.8-2.8c0.8-2.4-0.4-5-2.8-5.8c-2.4-0.8-5,0.4-5.8,2.8
		C892.2,136.5,893.5,139.2,895.8,140L895.8,140z"/>
	<path class="st2" d="M946.8,160.9c2.3,1.1,5,0.1,6.1-2.2s0.1-5-2.2-6.1s-5-0.1-6.1,2.2l0,0C943.6,157.1,944.6,159.8,946.8,160.9
		L946.8,160.9z"/>
	<path class="st2" d="M995.3,186.3c2.2,1.3,5,0.6,6.3-1.6c1.3-2.2,0.6-5-1.6-6.3s-5-0.6-6.3,1.6l0,0
		C992.4,182.2,993.1,185,995.3,186.3L995.3,186.3z"/>
	<path class="st2" d="M1041,216c2,1.5,4.9,1,6.4-1s1-4.9-1-6.4s-4.9-1-6.4,1l0,0C1038.5,211.7,1039,214.5,1041,216L1041,216z"/>
	<path class="st2" d="M1083.5,249.7c1.9,1.7,4.8,1.5,6.5-0.4s1.5-4.8-0.4-6.5s-4.8-1.5-6.5,0.4l0,0
		C1081.4,245.1,1081.6,248,1083.5,249.7z"/>
	<path class="st2" d="M1129.2,287.3c1.8-1.7,1.9-4.6,0.2-6.5s-4.6-1.9-6.5-0.2c-1.8,1.7-1.9,4.6-0.2,6.5l0,0
		C1124.5,288.9,1127.4,289,1129.2,287.3z"/>
	<path class="st2" d="M1164.8,328.8c2-1.6,2.3-4.4,0.8-6.4c-1.6-2-4.4-2.3-6.4-0.8c-2,1.6-2.3,4.4-0.8,6.4l0,0
		C1159.9,330,1162.8,330.4,1164.8,328.8z"/>
	<path class="st2" d="M1196.4,373.5c2.1-1.4,2.7-4.2,1.3-6.3s-4.2-2.7-6.3-1.3c-2.1,1.4-2.7,4.2-1.3,6.3l0,0
		C1191.4,374.3,1194.3,374.9,1196.4,373.5L1196.4,373.5z"/>
	<path class="st2" d="M1223.8,421.2c2.2-1.2,3.1-3.9,1.9-6.2c-1.2-2.2-3.9-3.1-6.2-1.9c-2.2,1.2-3.1,3.9-1.9,6.2
		C1218.8,421.5,1221.6,422.4,1223.8,421.2z"/>
	<path class="st2" d="M1246.8,471.5c2.3-1,3.4-3.6,2.5-6c-1-2.3-3.6-3.4-6-2.5c-2.3,1-3.4,3.6-2.5,5.9
		C1241.7,471.4,1244.4,472.5,1246.8,471.5L1246.8,471.5z"/>
	<path class="st2" d="M1262.3,515.5c-2.4,0.7-3.8,3.3-3.1,5.7s3.3,3.8,5.7,3.1c2.4-0.7,3.8-3.3,3.1-5.7
		C1267.3,516.2,1264.8,514.8,1262.3,515.5C1262.4,515.5,1262.4,515.5,1262.3,515.5z"/>
	<path class="st2" d="M1278.2,579.1c2.5-0.5,4.1-2.9,3.6-5.4s-2.9-4.1-5.4-3.6s-4.1,2.9-3.6,5.4l0,0
		C1273.3,578,1275.7,579.6,1278.2,579.1z"/>
	<path class="st2" d="M1281.1,631.7c0.2,2.5,2.5,4.4,5,4.1c2.5-0.2,4.4-2.5,4.1-5c-0.2-2.5-2.5-4.4-5-4.1l0,0
		C1282.7,627,1280.9,629.2,1281.1,631.7z"/>
	<path class="st2" d="M1288.5,685c-2.5,0-4.6,2-4.6,4.6c0,2.5,2,4.6,4.6,4.6c2.5,0,4.6-2,4.6-4.6l0,0
		C1293.1,687,1291.1,685,1288.5,685z"/>
</g>
</svg>
